<svg xmlns="http://www.w3.org/2000/svg" xmlns:xlink="http://www.w3.org/1999/xlink" width="500" zoomAndPan="magnify" viewBox="0 0 375 374.999991" height="500" preserveAspectRatio="xMidYMid meet" version="1.0"><defs><clipPath id="id1"><path d="M 193 100.59375 L 301.144531 100.59375 L 301.144531 270.285156 L 193 270.285156 Z M 193 100.59375 " clip-rule="nonzero"/></clipPath><clipPath id="id2"><path d="M 67.90625 100.59375 L 176 100.59375 L 176 270.285156 L 67.90625 270.285156 Z M 67.90625 100.59375 " clip-rule="nonzero"/></clipPath><clipPath id="id3"><path d="M 197 102 L 307.636719 102 L 307.636719 274.59375 L 197 274.59375 Z M 197 102 " clip-rule="nonzero"/></clipPath><clipPath id="id4"><path d="M 71 102 L 183 102 L 183 274.59375 L 71 274.59375 Z M 71 102 " clip-rule="nonzero"/></clipPath></defs><g clip-path="url(#id1)"><path fill="#bec2eb" d="M 248.210938 270.164062 C 233.207031 270.164062 220.386719 264.316406 209.742188 252.632812 C 204.6875 247.21875 200.671875 240.632812 197.703125 232.871094 C 194.738281 225.105469 193.253906 217.300781 193.253906 209.449219 C 193.253906 192.871094 198.667969 176.085938 209.480469 159.074219 C 220.300781 142.0625 234.78125 127.625 252.921875 115.765625 C 268.277344 105.644531 280.3125 100.582031 289.035156 100.582031 C 292.527344 100.582031 295.40625 101.628906 297.671875 103.722656 C 299.941406 105.816406 301.074219 108.613281 301.074219 112.097656 C 301.074219 117.332031 297.761719 121.695312 291.128906 125.183594 C 275.257812 133.390625 263.652344 141.5 256.324219 149.523438 C 249.351562 157.019531 245.859375 162.515625 245.859375 166.007812 C 245.859375 169.320312 248.472656 171.335938 253.707031 172.03125 L 257.109375 172.550781 L 261.035156 172.808594 C 272.378906 174.558594 281.578125 179.835938 288.644531 188.640625 C 295.710938 197.449219 299.242188 208.140625 299.242188 220.703125 C 299.242188 233.609375 294.882812 244.773438 286.160156 254.199219 C 276.210938 264.84375 263.566406 270.164062 248.210938 270.164062 " fill-opacity="1" fill-rule="nonzero"/></g><g clip-path="url(#id2)"><path fill="#bec2eb" d="M 122.863281 270.164062 C 107.859375 270.164062 95.035156 264.316406 84.394531 252.632812 C 79.335938 247.21875 75.324219 240.632812 72.355469 232.871094 C 69.386719 225.105469 67.90625 217.300781 67.90625 209.449219 C 67.90625 192.871094 73.316406 176.085938 84.128906 159.074219 C 94.949219 142.0625 109.425781 127.625 127.574219 115.765625 C 142.925781 105.644531 154.964844 100.582031 163.6875 100.582031 C 167.179688 100.582031 170.054688 101.628906 172.320312 103.722656 C 174.589844 105.816406 175.722656 108.613281 175.722656 112.097656 C 175.722656 117.332031 172.414062 121.695312 165.777344 125.183594 C 149.90625 133.390625 138.296875 141.5 130.972656 149.523438 C 123.996094 157.019531 120.507812 162.515625 120.507812 166.007812 C 120.507812 169.320312 123.121094 171.335938 128.359375 172.03125 L 131.761719 172.550781 L 135.683594 172.808594 C 147.023438 174.558594 156.230469 179.835938 163.289062 188.640625 C 170.359375 197.449219 173.890625 208.140625 173.890625 220.703125 C 173.890625 233.609375 169.53125 244.773438 160.808594 254.199219 C 150.859375 264.84375 138.21875 270.164062 122.863281 270.164062 " fill-opacity="1" fill-rule="nonzero"/></g><g clip-path="url(#id3)"><path fill="#293079" d="M 266.035156 177.234375 L 262.0625 176.96875 L 258.660156 176.445312 C 251.359375 175.476562 249.820312 172.007812 249.820312 169.269531 C 249.820312 165.441406 253.347656 159.789062 260.597656 151.992188 C 267.976562 143.917969 279.796875 135.644531 295.722656 127.410156 C 301.988281 124.117188 305.039062 120.171875 305.039062 115.359375 C 305.039062 112.183594 304.046875 109.722656 302.011719 107.84375 C 299.949219 105.9375 297.382812 105.011719 294.164062 105.011719 C 285.71875 105.011719 273.785156 110.054688 258.691406 120 C 240.773438 131.71875 226.273438 146.171875 215.59375 162.964844 C 204.949219 179.707031 199.550781 196.445312 199.550781 212.714844 C 199.550781 220.382812 201.023438 228.121094 203.925781 235.722656 C 206.824219 243.300781 210.792969 249.820312 215.726562 255.101562 C 226.101562 266.492188 238.753906 272.265625 253.34375 272.265625 C 268.285156 272.265625 280.765625 267.015625 290.4375 256.667969 C 298.910156 247.519531 303.207031 236.511719 303.207031 223.96875 C 303.207031 211.730469 299.726562 201.191406 292.863281 192.636719 C 286.03125 184.117188 277.003906 178.933594 266.035156 177.234375 Z M 294.164062 102.679688 C 297.945312 102.679688 301.117188 103.839844 303.59375 106.128906 C 306.101562 108.445312 307.371094 111.550781 307.371094 115.359375 C 307.371094 121.039062 303.8125 125.789062 296.800781 129.480469 C 281.113281 137.589844 269.515625 145.695312 262.316406 153.570312 C 253.914062 162.605469 252.152344 167.09375 252.152344 169.269531 C 252.152344 170.25 252.152344 173.230469 258.992188 174.136719 L 262.367188 174.65625 L 266.339844 174.921875 C 277.925781 176.707031 287.460938 182.175781 294.683594 191.175781 C 301.886719 200.15625 305.535156 211.1875 305.535156 223.96875 C 305.535156 237.121094 301.03125 248.65625 292.144531 258.257812 C 282.007812 269.101562 268.953125 274.59375 253.34375 274.59375 C 238.074219 274.59375 224.839844 268.570312 214.011719 256.679688 C 208.882812 251.191406 204.753906 244.414062 201.746094 236.550781 C 198.742188 228.691406 197.21875 220.667969 197.21875 212.714844 C 197.21875 195.996094 202.738281 178.839844 213.628906 161.714844 C 224.484375 144.640625 239.21875 129.949219 257.414062 118.050781 C 272.890625 107.851562 285.253906 102.679688 294.164062 102.679688 " fill-opacity="1" fill-rule="nonzero"/></g><g clip-path="url(#id4)"><path fill="#293079" d="M 140.6875 177.234375 L 136.714844 176.96875 L 133.3125 176.445312 C 126.007812 175.476562 124.472656 172.007812 124.472656 169.269531 C 124.472656 165.4375 127.996094 159.789062 135.25 151.992188 C 142.621094 143.921875 154.441406 135.648438 170.371094 127.410156 C 176.636719 124.117188 179.6875 120.171875 179.6875 115.359375 C 179.6875 112.183594 178.695312 109.722656 176.660156 107.84375 C 174.597656 105.9375 172.03125 105.011719 168.816406 105.011719 C 160.371094 105.011719 148.4375 110.054688 133.34375 120 C 115.425781 131.714844 100.925781 146.167969 90.242188 162.964844 C 79.597656 179.707031 74.199219 196.445312 74.199219 212.714844 C 74.199219 220.386719 75.671875 228.128906 78.574219 235.722656 C 81.46875 243.296875 85.441406 249.816406 90.378906 255.101562 C 100.753906 266.496094 113.40625 272.265625 127.992188 272.265625 C 142.933594 272.265625 155.414062 267.015625 165.085938 256.667969 C 173.558594 247.519531 177.851562 236.515625 177.851562 223.96875 C 177.851562 211.726562 174.375 201.1875 167.511719 192.636719 C 160.683594 184.117188 151.65625 178.9375 140.6875 177.234375 Z M 168.816406 102.679688 C 172.59375 102.679688 175.761719 103.839844 178.242188 106.128906 C 180.75 108.445312 182.019531 111.550781 182.019531 115.359375 C 182.019531 121.042969 178.464844 125.792969 171.449219 129.480469 C 155.757812 137.589844 144.15625 145.699219 136.964844 153.570312 C 128.566406 162.601562 126.800781 167.089844 126.800781 169.269531 C 126.800781 170.25 126.800781 173.230469 133.640625 174.136719 L 137.015625 174.65625 L 140.992188 174.921875 C 152.582031 176.710938 162.117188 182.175781 169.328125 191.179688 C 176.53125 200.152344 180.1875 211.183594 180.1875 223.96875 C 180.1875 237.121094 175.679688 248.65625 166.792969 258.257812 C 156.65625 269.101562 143.605469 274.59375 127.992188 274.59375 C 112.71875 274.59375 99.488281 268.570312 88.664062 256.679688 C 83.53125 251.1875 79.402344 244.414062 76.394531 236.550781 C 73.390625 228.695312 71.871094 220.675781 71.871094 212.714844 C 71.871094 195.996094 77.390625 178.839844 88.273438 161.714844 C 99.136719 144.636719 113.871094 129.945312 132.0625 118.050781 C 147.757812 107.707031 159.78125 102.679688 168.816406 102.679688 " fill-opacity="1" fill-rule="nonzero"/></g></svg>