<svg xmlns="http://www.w3.org/2000/svg" xmlns:xlink="http://www.w3.org/1999/xlink" width="500" zoomAndPan="magnify" viewBox="0 0 375 374.999991" height="500" preserveAspectRatio="xMidYMid meet" version="1.0"><defs><clipPath id="id1"><path d="M 193 90.496094 L 301.144531 90.496094 L 301.144531 260.1875 L 193 260.1875 Z M 193 90.496094 " clip-rule="nonzero"/></clipPath><clipPath id="id2"><path d="M 67.90625 90.496094 L 176 90.496094 L 176 260.1875 L 67.90625 260.1875 Z M 67.90625 90.496094 " clip-rule="nonzero"/></clipPath><clipPath id="id3"><path d="M 197 92 L 307.636719 92 L 307.636719 264.496094 L 197 264.496094 Z M 197 92 " clip-rule="nonzero"/></clipPath><clipPath id="id4"><path d="M 71 92 L 183 92 L 183 264.496094 L 71 264.496094 Z M 71 92 " clip-rule="nonzero"/></clipPath></defs><g clip-path="url(#id1)"><path fill="#bec2eb" d="M 248.210938 260.066406 C 233.207031 260.066406 220.386719 254.21875 209.742188 242.535156 C 204.6875 237.121094 200.671875 230.535156 197.703125 222.777344 C 194.738281 215.007812 193.253906 207.203125 193.253906 199.351562 C 193.253906 182.773438 198.667969 165.988281 209.480469 148.976562 C 220.300781 131.964844 234.78125 117.527344 252.921875 105.667969 C 268.277344 95.546875 280.3125 90.484375 289.035156 90.484375 C 292.527344 90.484375 295.40625 91.53125 297.671875 93.625 C 299.941406 95.71875 301.074219 98.515625 301.074219 102 C 301.074219 107.234375 297.761719 111.597656 291.128906 115.085938 C 275.257812 123.292969 263.652344 131.402344 256.324219 139.425781 C 249.351562 146.921875 245.859375 152.417969 245.859375 155.910156 C 245.859375 159.222656 248.472656 161.238281 253.707031 161.933594 L 257.109375 162.453125 L 261.035156 162.714844 C 272.378906 164.460938 281.578125 169.738281 288.644531 178.542969 C 295.710938 187.351562 299.242188 198.042969 299.242188 210.605469 C 299.242188 223.511719 294.882812 234.679688 286.160156 244.101562 C 276.210938 254.746094 263.566406 260.066406 248.210938 260.066406 " fill-opacity="1" fill-rule="nonzero"/></g><g clip-path="url(#id2)"><path fill="#bec2eb" d="M 122.863281 260.066406 C 107.859375 260.066406 95.035156 254.21875 84.394531 242.535156 C 79.335938 237.121094 75.324219 230.535156 72.355469 222.777344 C 69.386719 215.007812 67.90625 207.203125 67.90625 199.351562 C 67.90625 182.773438 73.316406 165.988281 84.128906 148.976562 C 94.949219 131.964844 109.425781 117.527344 127.574219 105.667969 C 142.925781 95.546875 154.964844 90.484375 163.6875 90.484375 C 167.179688 90.484375 170.054688 91.53125 172.320312 93.625 C 174.589844 95.71875 175.722656 98.515625 175.722656 102 C 175.722656 107.234375 172.414062 111.597656 165.777344 115.085938 C 149.90625 123.292969 138.296875 131.402344 130.972656 139.425781 C 123.996094 146.921875 120.507812 152.417969 120.507812 155.910156 C 120.507812 159.222656 123.121094 161.238281 128.359375 161.933594 L 131.761719 162.453125 L 135.683594 162.714844 C 147.023438 164.460938 156.230469 169.738281 163.289062 178.542969 C 170.359375 187.351562 173.890625 198.042969 173.890625 210.605469 C 173.890625 223.511719 169.53125 234.679688 160.808594 244.101562 C 150.859375 254.746094 138.21875 260.066406 122.863281 260.066406 " fill-opacity="1" fill-rule="nonzero"/></g><g clip-path="url(#id3)"><path fill="#293079" d="M 266.035156 167.136719 L 262.0625 166.871094 L 258.660156 166.347656 C 251.359375 165.382812 249.820312 161.914062 249.820312 159.171875 C 249.820312 155.34375 253.347656 149.695312 260.597656 141.894531 C 267.976562 133.820312 279.796875 125.546875 295.722656 117.316406 C 301.988281 114.019531 305.039062 110.074219 305.039062 105.261719 C 305.039062 102.085938 304.046875 99.628906 302.011719 97.746094 C 299.949219 95.839844 297.382812 94.914062 294.164062 94.914062 C 285.71875 94.914062 273.785156 99.957031 258.691406 109.902344 C 240.773438 121.621094 226.273438 136.074219 215.59375 152.867188 C 204.949219 169.609375 199.550781 186.351562 199.550781 202.617188 C 199.550781 210.285156 201.023438 218.023438 203.925781 225.625 C 206.824219 233.203125 210.792969 239.722656 215.726562 245.003906 C 226.101562 256.394531 238.753906 262.167969 253.34375 262.167969 C 268.285156 262.167969 280.765625 256.917969 290.4375 246.570312 C 298.910156 237.421875 303.207031 226.417969 303.207031 213.871094 C 303.207031 201.632812 299.726562 191.09375 292.863281 182.539062 C 286.03125 174.019531 277.003906 168.839844 266.035156 167.136719 Z M 294.164062 92.582031 C 297.945312 92.582031 301.117188 93.742188 303.59375 96.035156 C 306.101562 98.347656 307.371094 101.453125 307.371094 105.261719 C 307.371094 110.941406 303.8125 115.691406 296.800781 119.382812 C 281.113281 127.492188 269.515625 135.597656 262.316406 143.476562 C 253.914062 152.507812 252.152344 156.996094 252.152344 159.171875 C 252.152344 160.152344 252.152344 163.132812 258.992188 164.042969 L 262.367188 164.558594 L 266.339844 164.824219 C 277.925781 166.609375 287.460938 172.078125 294.683594 181.078125 C 301.886719 190.058594 305.535156 201.089844 305.535156 213.871094 C 305.535156 227.023438 301.03125 238.558594 292.144531 248.160156 C 282.007812 259.003906 268.953125 264.496094 253.34375 264.496094 C 238.074219 264.496094 224.839844 258.472656 214.011719 246.585938 C 208.882812 241.09375 204.753906 234.320312 201.746094 226.457031 C 198.742188 218.59375 197.21875 210.570312 197.21875 202.617188 C 197.21875 185.902344 202.738281 168.742188 213.628906 151.617188 C 224.484375 134.542969 239.21875 119.851562 257.414062 107.953125 C 272.890625 97.753906 285.253906 92.582031 294.164062 92.582031 " fill-opacity="1" fill-rule="nonzero"/></g><g clip-path="url(#id4)"><path fill="#293079" d="M 140.6875 167.136719 L 136.714844 166.871094 L 133.3125 166.347656 C 126.007812 165.382812 124.472656 161.914062 124.472656 159.171875 C 124.472656 155.339844 127.996094 149.691406 135.25 141.894531 C 142.621094 133.824219 154.441406 125.550781 170.371094 117.316406 C 176.636719 114.019531 179.6875 110.074219 179.6875 105.261719 C 179.6875 102.085938 178.695312 99.628906 176.660156 97.746094 C 174.597656 95.839844 172.03125 94.914062 168.816406 94.914062 C 160.371094 94.914062 148.4375 99.957031 133.34375 109.902344 C 115.425781 121.617188 100.925781 136.070312 90.242188 152.867188 C 79.597656 169.609375 74.199219 186.351562 74.199219 202.617188 C 74.199219 210.292969 75.671875 218.03125 78.574219 225.625 C 81.46875 233.199219 85.441406 239.71875 90.378906 245.003906 C 100.753906 256.398438 113.40625 262.167969 127.992188 262.167969 C 142.933594 262.167969 155.414062 256.917969 165.085938 246.570312 C 173.558594 237.421875 177.851562 226.417969 177.851562 213.871094 C 177.851562 201.632812 174.375 191.089844 167.511719 182.539062 C 160.683594 174.019531 151.65625 168.839844 140.6875 167.136719 Z M 168.816406 92.582031 C 172.59375 92.582031 175.761719 93.742188 178.242188 96.035156 C 180.75 98.347656 182.019531 101.453125 182.019531 105.261719 C 182.019531 110.945312 178.464844 115.695312 171.449219 119.382812 C 155.757812 127.492188 144.15625 135.601562 136.964844 143.476562 C 128.566406 152.503906 126.800781 156.992188 126.800781 159.171875 C 126.800781 160.152344 126.800781 163.132812 133.640625 164.042969 L 137.015625 164.558594 L 140.992188 164.824219 C 152.582031 166.613281 162.117188 172.082031 169.328125 181.082031 C 176.53125 190.054688 180.1875 201.085938 180.1875 213.871094 C 180.1875 227.023438 175.679688 238.558594 166.792969 248.160156 C 156.65625 259.003906 143.605469 264.496094 127.992188 264.496094 C 112.71875 264.496094 99.488281 258.472656 88.664062 246.585938 C 83.53125 241.089844 79.402344 234.316406 76.394531 226.457031 C 73.390625 218.597656 71.871094 210.578125 71.871094 202.617188 C 71.871094 185.898438 77.390625 168.742188 88.273438 151.617188 C 99.136719 134.539062 113.871094 119.847656 132.0625 107.953125 C 147.757812 97.609375 159.78125 92.582031 168.816406 92.582031 " fill-opacity="1" fill-rule="nonzero"/></g></svg>