<svg width="1512" height="342" viewBox="0 0 1512 342" fill="none" xmlns="http://www.w3.org/2000/svg">
<g clip-path="url(#clip0_2617_2)">
<path d="M1.46875 0H1510.53V351.318H1.46875V0Z" fill="white"/>
<path d="M1.46875 0H1510.53V341.333H1.46875V0Z" fill="#9098E0"/>
<path d="M1.46875 0H1510.53V341.333H1.46875V0Z" fill="white"/>
<path d="M1.46875 0H1510.53V341.333H1.46875V0Z" fill="#9098E0"/>
<path d="M103.724 22.0586C93.3437 34.5013 91.8594 34.8034 78.2031 27.1836C90.3229 36.9753 90.5625 38.4336 82.3125 52.3242C92.6927 39.8763 94.1771 39.5742 107.839 47.194C95.7135 37.4023 95.474 35.9388 103.724 22.0586Z" fill="#FDFD96"/>
<path d="M86.146 33.7813C89.62 37.9583 89.047 41.2656 85.1929 48.2448C92.0679 40.5052 95.0106 39.9479 103.964 44.5781C96.37 38.0313 95.8647 35.1406 100.844 26.1302C93.9689 33.8698 91.0314 34.4323 82.0731 29.8021C83.7866 31.276 85.1408 32.5677 86.146 33.7813ZM81.9168 52.0885C90.0783 38.3594 89.8908 37.2083 77.9116 27.5365L78.422 26.7865C91.9325 34.3177 93.0991 34.0833 103.375 21.7656L104.115 22.2917C95.9585 36.0156 96.146 37.1667 108.125 46.8385L107.615 47.5885C94.1043 40.0521 92.9377 40.2917 82.6616 52.6146L81.9168 52.0885Z" fill="#979497"/>
<path d="M110.615 139.863C101.005 152.889 99.5366 153.28 85.396 146.53C98.1304 155.535 98.4637 156.978 91.0679 171.301C100.682 158.28 102.151 157.889 116.292 164.639C103.552 155.634 103.224 154.191 110.615 139.863Z" fill="#FDFD96"/>
<path d="M94.4009 153.339C97.4321 156.984 96.9113 160.333 93.6978 167.078C100.094 158.943 103 158.208 112.25 162.266C104.245 156.219 103.562 153.375 107.989 144.094C101.588 152.224 98.6821 152.964 89.4373 148.901C91.6248 150.557 93.2655 151.969 94.4009 153.339ZM90.6613 171.094C97.9738 156.932 97.7186 155.802 85.1353 146.906L85.5884 146.12C99.578 152.797 100.734 152.49 110.25 139.594L111.021 140.078C103.713 154.234 103.969 155.37 116.557 164.266L116.094 165.052C102.104 158.375 100.953 158.682 91.4373 171.573L90.6613 171.094Z" fill="#979497"/>
<path d="M41.12 72.0482C26.0418 77.8555 24.6408 77.3763 17.0106 63.793C22.2397 78.5273 21.6981 79.9388 7.67725 88.0846C22.7606 82.2773 24.1616 82.7565 31.7918 96.3398C26.5627 81.6055 27.1095 80.194 41.12 72.0482Z" fill="#FDFD96"/>
<path d="M18.9427 68.0456C22.0104 77.6445 20.9687 80.4414 12.1823 85.9258C21.9115 82.5247 24.6719 83.5039 29.8594 92.082C26.7865 82.4831 27.8281 79.681 36.6198 74.207C26.8906 77.6029 24.1302 76.6237 18.9427 68.0456ZM7.84375 88.5039L7.45312 87.6862C21.3281 79.6237 21.7552 78.5143 16.5781 63.9414L17.4063 63.5664C24.9427 76.9883 26.0469 77.3633 40.9583 71.6237L41.349 72.4466C27.474 80.5039 27.0469 81.6133 32.2188 96.1862L31.3906 96.5612C23.8542 83.1393 22.7552 82.7643 7.84375 88.5039Z" fill="#979497"/>
<path d="M317.042 107.318C302.479 114.401 301.036 114.047 292.203 101.234C298.74 115.401 298.323 116.849 285.031 126.156C299.594 119.073 301.036 119.427 309.87 132.24C303.333 118.073 303.755 116.625 317.042 107.318Z" fill="#FDFD96"/>
<path d="M294.505 105.28C298.432 114.535 297.641 117.41 289.349 123.618C298.766 119.395 301.615 120.118 307.563 128.191C303.641 118.931 304.432 116.056 312.729 109.853C303.307 114.077 300.453 113.342 294.505 105.28ZM285.235 126.566L284.771 125.78C297.922 116.566 298.25 115.426 291.787 101.426L292.578 100.973C301.307 113.629 302.438 113.91 316.839 106.905L317.302 107.691C304.146 116.905 303.823 118.04 310.287 132.051L309.495 132.499C300.766 119.837 299.63 119.561 285.235 126.566Z" fill="#979497"/>
<path d="M378.802 154.949C370.588 168.85 369.167 169.392 354.323 164.194C368.005 171.772 368.489 173.163 362.635 188.126C370.844 174.215 372.265 173.678 387.114 178.876C373.427 171.298 372.948 169.902 378.802 154.949Z" fill="#FDFD96"/>
<path d="M364.891 170.897C367.412 173.928 367.073 177.288 364.797 183.673C370.328 174.944 373.151 173.902 382.807 176.949C374.177 171.798 373.203 169.053 376.636 159.397C371.104 168.126 368.287 169.168 358.625 166.126C361.552 167.866 363.599 169.34 364.891 170.897ZM362.208 187.96C367.995 173.168 367.62 172.079 354.099 164.595L354.469 163.767C369.162 168.902 370.281 168.486 378.406 154.715L379.224 155.111C373.438 169.897 373.818 170.991 387.333 178.475L386.964 179.303C372.276 174.163 371.156 174.585 363.026 188.355L362.208 187.96Z" fill="#979497"/>
<path d="M167.151 86.1628C151.505 89.9492 150.193 89.2826 144.505 74.7305C147.667 90.1055 146.943 91.444 132.031 97.694C147.672 93.9128 148.99 94.5794 154.677 109.132C151.51 93.7513 152.24 92.4128 167.151 86.1628Z" fill="#FDFD96"/>
<path d="M145.838 79.2396C147.568 89.2031 146.161 91.8542 136.745 96.1458C146.797 94.0521 149.39 95.3958 153.344 104.62C151.614 94.651 153.021 92.0052 162.432 87.7083C152.385 89.8021 149.792 88.4635 145.838 79.2396ZM132.135 98.1406L131.854 97.2708C146.62 91.0833 147.187 90.0365 144.057 74.8177L144.927 74.5625C150.542 88.9375 151.578 89.4583 167.042 85.7188L167.328 86.5833C152.562 92.7708 151.989 93.8229 155.12 109.036L154.255 109.297C148.635 94.9271 147.599 94.401 132.135 98.1406Z" fill="#979497"/>
<path d="M188.531 190.965C177.302 202.668 175.802 202.861 162.776 194.251C174.114 204.923 174.245 206.402 165.021 219.694C176.255 207.996 177.755 207.803 190.781 216.408C179.443 205.741 179.312 204.262 188.531 190.965Z" fill="#FDFD96"/>
<path d="M169.198 200.137C173.463 205.267 172.943 208.486 168.187 215.829C175.588 208.579 178.557 208.23 187.12 213.512C180.047 206.418 179.755 203.491 185.364 194.84C177.963 202.085 175 202.428 166.432 197.147C167.51 198.23 168.432 199.215 169.198 200.137ZM164.651 219.434C173.771 206.288 173.667 205.132 162.463 194.585L163.026 193.876C175.911 202.387 177.083 202.236 188.203 190.652L188.906 191.225C179.786 204.371 179.89 205.538 191.094 216.079L190.526 216.788C177.646 208.277 176.469 208.428 165.354 220.012L164.651 219.434Z" fill="#979497"/>
<path d="M259.047 141.382C243.088 142.001 241.943 141.079 239.359 125.574C239.323 141.397 238.349 142.574 222.604 145.783C238.562 145.158 239.708 146.079 242.286 161.585C242.323 145.762 243.302 144.59 259.047 141.382Z" fill="#FDFD96"/>
<path d="M239.745 130.323C239.406 140.5 237.495 142.828 227.474 145.193C237.667 145.12 239.927 146.953 241.901 156.839C242.239 146.661 244.151 144.333 254.182 141.964C243.979 142.042 241.719 140.203 239.745 130.323ZM222.62 146.234L222.51 145.333C238.104 142.156 238.87 141.234 238.906 125.573L239.812 125.5C242.359 140.818 243.26 141.536 259.031 140.922L259.14 141.823C243.547 145 242.781 145.922 242.745 161.589L241.838 161.661C239.286 146.344 238.39 145.62 222.62 146.234Z" fill="#979497"/>
<path d="M245.458 62.7852C234.833 75.0247 233.344 75.2956 219.854 67.3893C231.76 77.4362 231.969 78.9049 223.437 92.6237C234.062 80.3841 235.552 80.1185 249.042 88.0247C237.135 77.9779 236.927 76.5091 245.458 62.7852Z" fill="#FDFD96"/>
<path d="M227.406 73.8477C231.062 78.2539 230.495 81.5352 226.401 88.6081C233.432 81.0039 236.38 80.5039 245.224 85.3216C237.776 78.6185 237.328 75.7174 242.495 66.8008C235.464 74.4102 232.521 74.9102 223.672 70.0872C225.214 71.4727 226.453 72.7018 227.406 73.8477ZM223.047 92.3841C231.484 78.8164 231.323 77.6654 219.562 67.7383L220.083 66.9987C233.422 74.8164 234.594 74.6029 245.115 62.4883L245.849 63.0247C237.406 76.5924 237.568 77.7487 249.333 87.6758L248.807 88.4154C235.469 80.5977 234.302 80.8112 223.776 92.9258L223.047 92.3841Z" fill="#979497"/>
<path d="M82.875 247.323C68.875 240.302 68.3333 238.932 73.6042 223.781C65.9375 237.974 64.5313 238.568 49.4688 233.964C63.4635 240.984 64.0052 242.354 58.7344 257.51C66.401 243.318 67.8125 242.724 82.875 247.323Z" fill="#FDFD96"/>
<path d="M60.5573 240.521C62.9375 243.385 62.6771 246.74 60.724 252.99C65.9115 244.062 68.6979 242.911 78.4844 245.568C69.6458 240.776 68.5573 238.073 71.6094 228.302C66.4271 237.229 63.6458 238.38 53.8542 235.719C57.0417 237.448 59.2187 238.906 60.5573 240.521ZM58.3073 257.359C63.5104 242.385 63.0885 241.307 49.2656 234.37L49.599 233.526C64.5104 238.083 65.6146 237.615 73.2031 223.562L74.0313 223.927C68.8229 238.906 69.25 239.979 83.0781 246.917L82.7396 247.76C67.8333 243.208 66.7292 243.677 59.1406 257.724L58.3073 257.359Z" fill="#979497"/>
<path d="M1387.35 289.29C1398.1 277.66 1399.57 277.441 1412.51 285.525C1401.17 275.395 1401.02 273.957 1409.76 260.816C1399.01 272.452 1397.55 272.676 1384.6 264.587C1395.94 274.717 1396.1 276.155 1387.35 289.29Z" fill="#FDFD96"/>
<path d="M1405.09 278.714C1401.91 274.469 1402.63 271.271 1406.74 264.656C1399.65 271.87 1396.76 272.271 1388.25 267.328C1395.33 274.073 1395.68 276.911 1390.37 285.458C1397.46 278.245 1400.36 277.844 1408.86 282.786C1407.27 281.266 1406.01 279.943 1405.09 278.714ZM1410.13 261.068C1401.48 274.057 1401.61 275.188 1412.81 285.193L1412.27 285.901C1399.47 277.906 1398.32 278.078 1387.69 289.594L1386.99 289.042C1395.63 276.057 1395.51 274.927 1384.3 264.922L1384.84 264.214C1397.64 272.208 1398.79 272.036 1409.43 260.516L1410.13 261.068Z" fill="#979497"/>
<path d="M1386.53 174.105C1396.55 161.871 1398 161.564 1411.46 168.824C1399.48 159.428 1399.23 158.007 1407.16 144.402C1397.14 156.632 1395.69 156.939 1382.23 149.684C1394.2 159.074 1394.45 160.496 1386.53 174.105Z" fill="#FDFD96"/>
<path d="M1403.02 161.757C1400.24 158.053 1400.92 154.814 1404.39 148.392C1397.74 156.012 1394.87 156.595 1386.06 152.189C1393.56 158.47 1394.08 161.277 1389.3 170.111C1395.95 162.496 1398.82 161.913 1407.64 166.319C1405.58 164.6 1404.06 163.147 1403.02 161.757ZM1407.55 144.626C1399.71 158.079 1399.9 159.194 1411.73 168.475L1411.24 169.215C1397.94 162.033 1396.8 162.272 1386.87 174.387L1386.14 173.882C1393.98 160.428 1393.78 159.314 1381.95 150.033L1382.44 149.288C1395.75 156.47 1396.89 156.23 1406.82 144.121L1407.55 144.626Z" fill="#979497"/>
<path d="M1450.92 243.573C1465.91 238.646 1467.26 239.177 1474.02 252.786C1469.66 238.172 1470.26 236.818 1484.33 229.557C1469.33 234.49 1467.99 233.953 1461.23 220.344C1465.59 234.964 1464.99 236.313 1450.92 243.573Z" fill="#FDFD96"/>
<path d="M1472.35 248.546C1469.83 239.04 1470.99 236.358 1479.83 231.441C1470.18 234.285 1467.53 233.197 1462.9 224.587C1465.42 234.092 1464.26 236.77 1455.41 241.686C1465.07 238.848 1467.71 239.931 1472.35 248.546ZM1484.2 229.134L1484.54 229.952C1470.6 237.139 1470.13 238.202 1474.45 252.66L1473.62 252.983C1466.94 239.54 1465.89 239.118 1451.06 243.993L1450.71 243.176C1464.65 235.988 1465.12 234.926 1460.8 220.473L1461.63 220.145C1468.31 233.592 1469.36 234.009 1484.2 229.134Z" fill="#979497"/>
<path d="M1183.57 195.875C1198.12 189.677 1199.51 190.089 1207.49 203.005C1201.82 188.88 1202.3 187.49 1215.73 179.057C1201.17 185.26 1199.78 184.844 1191.8 171.922C1197.47 186.052 1196.99 187.443 1183.57 195.875Z" fill="#FDFD96"/>
<path d="M1205.44 198.947C1202.08 189.733 1202.99 186.967 1211.39 181.322C1201.99 184.983 1199.26 184.134 1193.85 175.983C1197.22 185.197 1196.3 187.962 1187.9 193.608C1197.3 189.947 1200.05 190.801 1205.44 198.947ZM1215.55 178.645L1215.96 179.431C1202.68 187.78 1202.3 188.874 1207.91 202.837L1207.11 203.238C1199.23 190.478 1198.14 190.15 1183.74 196.285L1183.33 195.499C1196.62 187.15 1196.99 186.056 1191.39 172.087L1192.18 171.691C1200.07 184.452 1201.16 184.78 1215.55 178.645Z" fill="#979497"/>
<path d="M1125.71 146.462C1134.42 133.301 1135.83 132.842 1150.05 138.629C1137.08 130.577 1136.68 129.202 1143.14 114.895C1134.44 128.061 1133.02 128.514 1118.8 122.733C1131.77 130.78 1132.17 132.16 1125.71 146.462Z" fill="#FDFD96"/>
<path d="M1140.08 131.583C1137.77 128.505 1138.27 125.245 1140.8 119.135C1134.97 127.38 1132.17 128.26 1122.9 124.823C1131.06 130.255 1131.88 132.979 1128.05 142.229C1133.88 133.984 1136.68 133.104 1145.95 136.536C1143.18 134.698 1141.26 133.167 1140.08 131.583ZM1143.55 115.078C1137.16 129.219 1137.47 130.302 1150.29 138.25L1149.88 139.042C1135.81 133.323 1134.7 133.677 1126.08 146.708L1125.31 146.281C1131.69 132.146 1131.38 131.063 1118.56 123.109L1118.97 122.323C1133.04 128.042 1134.15 127.688 1142.77 114.656L1143.55 115.078Z" fill="#979497"/>
<path d="M1328.7 223.733C1344.15 220.801 1345.4 221.509 1350.22 235.967C1347.9 220.827 1348.68 219.561 1363.53 214.186C1348.08 217.118 1346.83 216.405 1342.02 201.941C1344.33 217.092 1343.56 218.358 1328.7 223.733Z" fill="#FDFD96"/>
<path d="M1349.14 231.509C1347.95 221.712 1349.46 219.197 1358.85 215.467C1348.95 217.02 1346.48 215.587 1343.09 206.405C1344.28 216.207 1342.77 218.717 1333.38 222.452C1343.28 220.895 1345.75 222.327 1349.14 231.509ZM1363.45 213.743L1363.68 214.603C1348.97 219.926 1348.36 220.915 1350.66 235.905L1349.8 236.113C1345.04 221.832 1344.05 221.275 1328.79 224.165L1328.55 223.316C1343.26 217.993 1343.87 216.993 1341.58 202.014L1342.44 201.801C1347.2 216.082 1348.18 216.645 1363.45 213.743Z" fill="#979497"/>
<path d="M1313.09 120.526C1324.62 109.661 1326.1 109.547 1338.37 118.568C1327.84 107.62 1327.8 106.167 1337.45 93.6562C1325.91 104.521 1324.44 104.635 1312.17 95.6146C1322.69 106.562 1322.74 108.016 1313.09 120.526Z" fill="#FDFD96"/>
<path d="M1332.4 112.521C1328.5 107.313 1329.17 104.198 1334.17 97.2708C1326.59 103.984 1323.68 104.177 1315.59 98.6146C1322.14 105.875 1322.27 108.74 1316.37 116.906C1323.95 110.203 1326.86 110.005 1334.95 115.568C1333.95 114.458 1333.1 113.458 1332.4 112.521ZM1337.8 93.9271C1328.25 106.302 1328.3 107.438 1338.69 118.255L1338.11 118.922C1325.97 110.005 1324.82 110.094 1313.39 120.854L1312.73 120.255C1322.29 107.88 1322.24 106.74 1311.84 95.9219L1312.43 95.2552C1324.57 104.177 1325.72 104.089 1337.15 93.3281L1337.8 93.9271Z" fill="#979497"/>
<path d="M1241.83 165.469C1257.43 165.635 1258.5 166.583 1260.24 181.828C1261.07 166.401 1262.08 165.302 1277.6 162.938C1262 162.776 1260.93 161.823 1259.19 146.578C1258.36 162.005 1257.35 163.099 1241.83 165.469Z" fill="#FDFD96"/>
<path d="M1260.1 177.178C1260.94 167.277 1262.93 165.1 1272.82 163.272C1262.88 162.85 1260.76 160.96 1259.33 151.225C1258.49 161.132 1256.51 163.309 1246.61 165.137C1256.56 165.553 1258.67 167.449 1260.1 177.178ZM1277.6 162.496L1277.67 163.376C1262.3 165.72 1261.51 166.585 1260.69 181.85L1259.8 181.882C1258.08 166.824 1257.24 166.074 1241.83 165.913L1241.77 165.033C1257.14 162.689 1257.93 161.824 1258.74 146.553L1259.63 146.527C1261.35 161.579 1262.19 162.329 1277.6 162.496Z" fill="#979497"/>
<path d="M1251.16 242.746C1262.14 231.324 1263.6 231.137 1276.36 239.491C1265.25 229.121 1265.12 227.684 1274.13 214.715C1263.15 226.137 1261.68 226.329 1248.92 217.965C1260.04 228.34 1260.16 229.777 1251.16 242.746Z" fill="#FDFD96"/>
<path d="M1269.32 232.828C1265.97 228.359 1266.69 225.187 1271.04 218.49C1263.8 225.562 1260.9 225.906 1252.51 220.781C1259.44 227.677 1259.73 230.526 1254.24 238.969C1261.48 231.896 1264.38 231.552 1272.77 236.677C1271.34 235.25 1270.19 233.995 1269.32 232.828ZM1274.49 214.969C1265.59 227.792 1265.69 228.922 1276.66 239.167L1276.11 239.865C1263.49 231.599 1262.34 231.745 1251.48 243.052L1250.79 242.495C1259.7 229.672 1259.6 228.536 1248.62 218.292L1249.17 217.594C1261.79 225.859 1262.94 225.708 1273.81 214.406L1274.49 214.969Z" fill="#979497"/>
<path d="M1418.96 70.6836C1432.26 78.2044 1432.72 79.5638 1426.82 94.0846C1435.01 80.6159 1436.41 80.1055 1450.87 85.319C1437.57 77.7982 1437.11 76.4388 1443.01 61.918C1434.82 75.3867 1433.42 75.8919 1418.96 70.6836Z" fill="#FDFD96"/>
<path d="M1440.38 78.3906C1438.2 75.4844 1438.63 72.224 1440.84 66.2292C1435.34 74.6823 1432.56 75.6667 1423.15 72.6042C1431.53 77.7031 1432.46 80.3958 1428.99 89.7708C1434.49 81.3177 1437.26 80.3281 1446.68 83.3958C1443.66 81.5573 1441.6 80.026 1440.38 78.3906ZM1443.42 62.0833C1437.59 76.4323 1437.95 77.5 1451.09 84.9323L1450.72 85.7396C1436.41 80.5781 1435.31 80.9792 1427.2 94.3125L1426.41 93.9167C1432.24 79.5677 1431.88 78.5 1418.74 71.0677L1419.11 70.2604C1433.42 75.4219 1434.52 75.0208 1442.63 61.6875L1443.42 62.0833Z" fill="#979497"/>
</g>
<defs>
<clipPath id="clip0_2617_2">
<rect width="1512" height="342" fill="white"/>
</clipPath>
</defs>
</svg>
