<svg width="1512" height="342" viewBox="0 0 1512 342" fill="none" xmlns="http://www.w3.org/2000/svg">
<g clip-path="url(#clip0_2618_163)">
<path d="M1.46875 0H1510.53V351.318H1.46875V0Z" fill="white"/>
<path d="M1.46875 0H1510.53V341.333H1.46875V0Z" fill="#9098E0"/>
<path d="M1.46875 0H1510.53V341.333H1.46875V0Z" fill="white"/>
<path d="M1.46875 0H1510.53V341.333H1.46875V0Z" fill="#9098E0"/>
<path d="M234.526 58.9164C234.651 60.2498 235.708 77.1612 241.526 86.3071C245.614 92.7289 254.875 92.4842 255.635 92.5623C256.135 92.6092 256.609 92.9425 256.765 93.5206C256.885 93.9737 256.63 94.3956 256.245 94.6248C250.609 98.0154 243.271 100.713 238.89 107.567C238.885 107.578 238.916 107.531 238.911 107.541C235.573 117.302 232.588 136.338 232.005 139.114C230.776 138.724 230.573 137.807 230.536 136.812C230.5 135.906 229.291 122.041 227.875 116.114L227.927 116.177C224.745 108.578 220.354 102.37 213.604 98.755C212.291 98.0571 209.151 97.0623 208.14 95.7081C207.974 95.1925 217.182 93.3487 220.599 90.8748C225.265 87.4998 228.224 80.5571 229.734 74.5467C230.781 70.3748 232.432 57.1612 233.26 52.906C233.88 52.5727 234.25 55.8904 234.526 58.9164Z" fill="#FDFD96"/>
<path d="M400.469 153.632C400.557 154.601 401.312 166.845 405.469 173.465C408.39 178.116 415.005 177.939 415.547 177.991C415.906 178.028 416.245 178.267 416.354 178.689C416.437 179.017 416.26 179.319 415.984 179.486C411.958 181.944 406.713 183.892 403.588 188.861C403.583 188.866 403.604 188.835 403.604 188.84C401.219 195.908 399.088 209.689 398.672 211.7C397.791 211.413 397.646 210.752 397.62 210.033C397.594 209.377 396.729 199.335 395.719 195.048L395.755 195.09C393.479 189.59 390.349 185.095 385.526 182.481C384.588 181.97 382.344 181.252 381.625 180.272C381.5 179.897 388.083 178.564 390.521 176.772C393.854 174.33 395.969 169.304 397.047 164.95C397.791 161.934 398.974 152.366 399.562 149.283C400.005 149.038 400.271 151.444 400.469 153.632Z" fill="#FDFD96"/>
<path d="M986.766 57.1319C986.854 58.1006 987.609 70.3402 991.766 76.96C994.687 81.611 1001.3 81.4339 1001.84 81.4912C1002.2 81.5277 1002.54 81.7673 1002.65 82.1892C1002.73 82.5121 1002.55 82.8194 1002.28 82.986C998.25 85.4444 993.01 87.3923 989.885 92.3558C989.88 92.361 989.901 92.3298 989.901 92.3402C987.51 99.4027 985.38 113.189 984.969 115.2C984.089 114.913 983.943 114.252 983.917 113.528C983.891 112.877 983.026 102.835 982.016 98.5433L982.052 98.5902C979.776 93.0902 976.641 88.5902 971.823 85.9756C970.885 85.4704 968.641 84.7517 967.917 83.7725C967.797 83.3975 974.375 82.0642 976.818 80.2725C980.151 77.8246 982.266 72.7985 983.344 68.4496C984.089 65.4287 985.271 55.861 985.859 52.7829C986.302 52.5381 986.568 54.9392 986.766 57.1319Z" fill="#FDFD96"/>
<path d="M1201.3 131.166C1201.42 132.504 1202.47 149.411 1208.3 158.556C1212.39 164.978 1221.64 164.739 1222.41 164.812C1222.91 164.864 1223.38 165.197 1223.53 165.775C1223.65 166.228 1223.4 166.645 1223.02 166.879C1217.38 170.27 1210.04 172.963 1205.66 179.822C1205.66 179.832 1205.68 179.786 1205.68 179.796C1202.34 189.556 1199.36 208.593 1198.78 211.369C1197.55 210.973 1197.34 210.062 1197.3 209.067C1197.27 208.161 1196.06 194.291 1194.65 188.369L1194.69 188.426C1191.51 180.832 1187.12 174.624 1180.38 171.01C1179.06 170.312 1175.92 169.317 1174.91 167.963C1174.74 167.447 1183.95 165.603 1187.37 163.129C1192.03 159.749 1194.99 152.812 1196.5 146.801C1197.55 142.629 1199.2 129.416 1200.03 125.161C1200.65 124.822 1201.02 128.145 1201.3 131.166Z" fill="#FDFD96"/>
<path d="M1551.54 581.601C1544.7 539.455 1510.8 494.242 1533.55 435.476C1563.13 358.643 1538.91 306.148 1493.96 282.064C1486.39 277.783 1478.41 274.507 1470.02 272.236C1461.63 269.966 1453.09 268.773 1444.4 268.648C1394.66 268.648 1384.08 297.169 1333.44 292.481C1305.91 289.924 1291.62 285.273 1234.11 270.273C1101.67 235.986 1067.37 358.788 1181.49 414.382C1186.06 416.617 1195.89 423.252 1200.53 425.846C1239.4 447.481 1234.22 437.023 1273.88 501.163C1299.54 542.663 1279.28 576.049 1321.89 620.148C1358.13 657.533 1406.4 673.867 1458.65 674.95C1472.43 673.721 1499.28 674.012 1526.64 652.559C1537.36 644.122 1555.68 607.601 1551.54 581.601Z" fill="#B2DECD"/>
<path d="M1282.87 581.601C1276.03 539.455 1242.12 494.242 1264.87 435.476C1294.46 358.643 1270.23 306.148 1225.29 282.064C1217.71 277.783 1209.73 274.507 1201.34 272.236C1192.95 269.966 1184.42 268.773 1175.72 268.648C1125.99 268.648 1115.41 297.169 1064.77 292.481C1037.23 289.924 1022.95 285.273 965.437 270.273C832.995 235.986 798.698 358.788 912.818 414.382C917.391 416.617 927.213 423.252 931.859 425.846C970.729 447.481 965.547 437.023 1005.2 501.163C1030.86 542.663 1010.6 576.049 1053.21 620.148C1089.46 657.533 1137.72 673.867 1189.98 674.95C1203.76 673.721 1230.61 674.012 1257.96 652.559C1268.69 644.122 1287.01 607.601 1282.87 581.601Z" fill="#B2DECD"/>
<path d="M1020.76 581.601C1013.92 539.455 980.016 494.242 1002.76 435.476C1032.34 358.643 1008.13 306.148 963.172 282.064C955.604 277.783 947.625 274.507 939.235 272.236C930.844 269.966 922.302 268.773 913.615 268.648C863.875 268.648 853.292 297.169 802.656 292.481C775.125 289.924 760.833 285.273 703.323 270.273C570.88 235.986 536.583 358.788 650.708 414.382C655.276 416.617 665.104 423.252 669.745 425.846C708.615 447.481 703.432 437.023 743.094 501.163C768.755 542.663 748.49 576.049 791.104 620.148C827.344 657.533 875.61 673.867 927.865 674.95C941.651 673.721 968.5 674.012 995.849 652.559C1006.57 644.122 1024.9 607.601 1020.76 581.601Z" fill="#B2DECD"/>
<path d="M753.016 581.601C746.177 539.455 712.271 494.242 735.021 435.476C764.604 358.643 740.38 306.148 695.432 282.064C687.859 277.783 679.88 274.507 671.49 272.236C663.104 269.966 654.563 268.773 645.87 268.648C596.135 268.648 585.552 297.169 534.917 292.481C507.38 289.924 493.094 285.273 435.583 270.273C303.141 235.986 268.844 358.788 382.964 414.382C387.537 416.617 397.359 423.252 402.005 425.846C440.875 447.481 435.693 437.023 475.354 501.163C501.01 542.663 480.75 576.049 523.365 620.148C559.604 657.533 607.865 673.867 660.125 674.95C673.906 673.721 700.755 674.012 728.109 652.559C738.833 644.122 757.151 607.601 753.016 581.601Z" fill="#B2DECD"/>
<path d="M726.63 106.22C726.63 106.22 723.203 133.048 754.63 133.048C786.057 133.048 781.485 101.652 781.485 101.652C781.485 101.652 773.49 83.3867 754.057 83.3867C734.63 83.3867 726.63 106.22 726.63 106.22ZM747.203 133.048C748.287 144.413 740.917 145.033 715.771 161.017C690.63 177.001 686.63 218.1 686.63 218.1L758.057 242.647L766.63 237.507L826.625 219.814C826.625 219.814 829.485 204.97 818.63 180.996C807.771 157.022 786.349 152.783 772.344 147.887C760.917 143.892 759.771 133.048 759.771 133.048C759.771 133.048 746.057 121.059 747.203 133.048ZM737.49 253.491L715.203 274.038C719.203 275.751 730.63 271.184 736.917 268.902C743.203 266.621 748.344 265.475 751.771 266.621C755.198 267.762 766.63 271.184 766.63 271.184L773.49 257.486L737.49 253.491ZM754.104 281.371C754.104 281.371 766.057 281.46 769.485 280.887C772.912 280.319 776.901 276.23 776.901 276.23L805.026 290.1C805.026 290.1 782.63 286.6 775.771 288.309C768.917 290.022 762.63 291.163 762.63 291.163L754.104 281.371Z" fill="#965A59"/>
<path d="M798.917 169.578C789.287 169.578 781.485 177.375 781.485 186.99C781.485 196.604 789.287 204.401 798.917 204.401C808.542 204.401 816.344 196.604 816.344 186.99C816.344 177.375 808.542 169.578 798.917 169.578ZM733.49 186.99C733.49 196.604 725.682 204.401 716.057 204.401C706.432 204.401 698.63 196.604 698.63 186.99C698.63 177.375 706.432 169.578 716.057 169.578C725.682 169.578 733.49 177.375 733.49 186.99Z" fill="#FBC9CF"/>
<path d="M754.057 72.543C712.917 72.543 720.917 127.908 732.344 130.762C732.344 130.762 722.63 133.048 726.057 143.892C727.104 147.199 730.104 149.116 733.625 150.21C744.521 143.736 747.964 141.059 747.203 133.048C747.182 132.845 747.167 132.652 747.156 132.465C728.063 129.267 726.469 113.777 726.521 108.215C726.573 108.204 747.781 103.923 754.057 93.0898C754.057 93.0898 760.234 108.017 781.708 106.548C781.536 114.736 778.667 130.522 759.448 132.772C759.656 132.944 759.771 133.048 759.771 133.048C759.771 133.048 760.917 143.892 772.344 147.887C774.042 148.48 775.849 149.064 777.729 149.673C781.208 148.876 785.401 146.829 786.057 141.611C787.198 132.475 779.771 130.762 776.917 130.194C788.344 121.059 797.484 72.543 754.057 72.543ZM743.203 114.21C743.203 114.84 743.714 115.35 744.344 115.35C744.974 115.35 745.484 114.84 745.484 114.21C745.484 113.579 744.974 113.069 744.344 113.069C743.714 113.069 743.203 113.579 743.203 114.21ZM765.484 114.21C765.484 113.579 764.974 113.069 764.344 113.069C763.714 113.069 763.203 113.579 763.203 114.21C763.203 114.84 763.714 115.35 764.344 115.35C764.974 115.35 765.484 114.84 765.484 114.21ZM723.271 184.991C719.839 184.991 718.698 180.423 721.557 178.142C724.411 175.855 724.776 171.876 724.776 171.876C714.849 166.184 699.839 171.866 698.698 184.428C697.552 196.991 707.266 202.116 707.266 202.116C707.266 202.116 723.839 196.408 726.698 193.553C729.552 190.699 726.698 184.991 723.271 184.991ZM816.344 184.428C815.198 171.866 800.188 166.184 790.266 171.876C790.266 171.876 790.63 175.855 793.484 178.142C796.344 180.423 795.198 184.991 791.771 184.991C788.344 184.991 785.484 190.699 788.344 193.553C791.203 196.408 807.771 202.116 807.771 202.116C807.771 202.116 817.484 196.991 816.344 184.428ZM763.771 178.736C763.786 178.423 763.542 178.158 763.224 178.142C762.917 178.126 762.646 178.371 762.63 178.689C762.625 178.798 762.297 188.007 768.542 193.673C768.964 193.533 769.385 193.392 769.807 193.251C763.453 188.001 763.766 178.845 763.771 178.736ZM752.339 178.689C752.344 178.793 752.661 187.835 746.589 193.517C746.26 193.303 745.932 193.09 745.594 192.882C751.5 187.579 751.198 178.84 751.198 178.736C751.182 178.423 751.427 178.158 751.74 178.142C752.057 178.116 752.323 178.371 752.339 178.689Z" fill="#2D2927"/>
<path d="M799.099 227.934L766.63 237.507L758.057 242.648L709.677 226.023L648.344 290.023C648.344 290.023 653.49 310.57 680.344 306.575C707.203 302.58 762.63 291.163 762.63 291.163L741.854 267.299C740.302 267.731 738.656 268.273 736.917 268.903C730.63 271.184 719.203 275.752 715.203 274.038L737.49 253.491L773.49 257.486L766.63 271.184C766.63 271.184 798.057 286.601 814.057 294.59C830.057 302.58 856.344 298.585 863.771 282.033L799.099 227.934ZM738.057 224.382L705.484 200.976C705.484 200.976 706.63 186.132 728.344 187.278C750.057 188.419 762.63 210.106 762.63 210.106L738.057 224.382Z" fill="#76A19B"/>
<path d="M779.198 220.955C779.198 220.955 773.489 215.814 764.344 219.241C755.198 222.663 751.771 228.371 751.771 228.371C742.63 230.085 738.057 224.382 738.057 224.382C740.344 205.543 757.484 196.408 774.63 191.84C791.771 187.278 807.771 202.116 807.771 202.116L779.198 220.955Z" fill="#FEF2EA"/>
<path d="M485.583 581.601C478.745 539.455 444.839 494.242 467.589 435.476C497.172 358.643 472.948 306.148 428 282.064C420.427 277.783 412.448 274.507 404.057 272.236C395.667 269.966 387.13 268.773 378.438 268.648C328.703 268.648 318.12 297.169 267.484 292.481C239.948 289.924 225.661 285.273 168.151 270.273C35.7083 235.986 1.40625 358.788 115.531 414.382C120.104 416.617 129.927 423.252 134.573 425.846C173.443 447.481 168.26 437.023 207.917 501.163C233.578 542.663 213.318 576.049 255.927 620.148C292.172 657.533 340.432 673.867 392.693 674.95C406.474 673.721 433.323 674.012 460.677 652.559C471.401 644.122 489.719 607.601 485.583 581.601Z" fill="#B2DECD"/>
<path d="M213.313 581.601C206.474 539.455 172.573 494.242 195.318 435.476C224.901 358.643 200.682 306.148 155.729 282.064C148.161 277.783 140.182 274.507 131.792 272.236C123.401 269.966 114.859 268.773 106.172 268.648C56.4323 268.648 45.8542 297.169 -4.78647 292.481C-32.3177 289.924 -46.6042 285.273 -104.12 270.273C-236.563 235.986 -270.859 358.788 -156.734 414.382C-152.167 416.617 -142.339 423.252 -137.698 425.846C-98.8281 447.481 -104.01 437.023 -64.349 501.163C-38.6875 542.663 -58.9531 576.049 -16.3386 620.148C19.901 657.533 68.1667 673.867 120.422 674.95C134.208 673.721 161.057 674.012 188.406 652.559C199.135 644.122 217.453 607.601 213.313 581.601Z" fill="#B2DECD"/>
</g>
<defs>
<clipPath id="clip0_2618_163">
<rect width="1512" height="342" fill="white"/>
</clipPath>
</defs>
</svg>
