<svg xmlns="http://www.w3.org/2000/svg" xmlns:xlink="http://www.w3.org/1999/xlink" width="1512" zoomAndPan="magnify" viewBox="0 0 1134 256.499992" height="342" preserveAspectRatio="xMidYMid meet" version="1.0"><defs><clipPath id="id1"><path d="M 1.101562 0 L 1132.894531 0 L 1132.894531 256 L 1.101562 256 Z M 1.101562 0 " clip-rule="nonzero"/></clipPath><clipPath id="id2"><path d="M 156 39.320312 L 192.664062 39.320312 L 192.664062 104.441406 L 156 104.441406 Z M 156 39.320312 " clip-rule="nonzero"/></clipPath><clipPath id="id3"><path d="M 286.128906 111.695312 L 312.328125 111.695312 L 312.328125 158.851562 L 286.128906 158.851562 Z M 286.128906 111.695312 " clip-rule="nonzero"/></clipPath><clipPath id="id4"><path d="M 725.851562 39.320312 L 752.050781 39.320312 L 752.050781 86.476562 L 725.851562 86.476562 Z M 725.851562 39.320312 " clip-rule="nonzero"/></clipPath><clipPath id="id5"><path d="M 881.058594 93.507812 L 917.738281 93.507812 L 917.738281 158.632812 L 881.058594 158.632812 Z M 881.058594 93.507812 " clip-rule="nonzero"/></clipPath><clipPath id="id6"><path d="M 834 198 L 1132.894531 198 L 1132.894531 256 L 834 256 Z M 834 198 " clip-rule="nonzero"/></clipPath><clipPath id="id7"><path d="M 632 198 L 963 198 L 963 256 L 632 256 Z M 632 198 " clip-rule="nonzero"/></clipPath><clipPath id="id8"><path d="M 436 198 L 767 198 L 767 256 L 436 256 Z M 436 198 " clip-rule="nonzero"/></clipPath><clipPath id="id9"><path d="M 235 198 L 566 198 L 566 256 L 235 256 Z M 235 198 " clip-rule="nonzero"/></clipPath><clipPath id="id10"><path d="M 523 54.402344 L 613 54.402344 L 613 152 L 523 152 Z M 523 54.402344 " clip-rule="nonzero"/></clipPath><clipPath id="id11"><path d="M 486.257812 140.246094 L 647.828125 140.246094 L 647.828125 230.308594 L 486.257812 230.308594 Z M 486.257812 140.246094 " clip-rule="nonzero"/></clipPath><clipPath id="id12"><path d="M 34 198 L 365 198 L 365 256 L 34 256 Z M 34 198 " clip-rule="nonzero"/></clipPath><clipPath id="id13"><path d="M 1.101562 198 L 161 198 L 161 256 L 1.101562 256 Z M 1.101562 198 " clip-rule="nonzero"/></clipPath></defs><g clip-path="url(#id1)"><path fill="rgb(100%, 100%, 100%)" d="M 1.101562 0 L 1132.898438 0 L 1132.898438 263.488281 L 1.101562 263.488281 Z M 1.101562 0 " fill-opacity="1" fill-rule="nonzero"/><path fill="rgb(56.469727%, 59.609985%, 87.838745%)" d="M 1.101562 0 L 1132.898438 0 L 1132.898438 256 L 1.101562 256 Z M 1.101562 0 " fill-opacity="1" fill-rule="nonzero"/><path fill="rgb(100%, 100%, 100%)" d="M 1.101562 0 L 1132.898438 0 L 1132.898438 256 L 1.101562 256 Z M 1.101562 0 " fill-opacity="1" fill-rule="nonzero"/><path fill="rgb(56.469727%, 59.609985%, 87.838745%)" d="M 1.101562 0 L 1132.898438 0 L 1132.898438 256 L 1.101562 256 Z M 1.101562 0 " fill-opacity="1" fill-rule="nonzero"/></g><g clip-path="url(#id2)"><path fill="rgb(99.21875%, 99.21875%, 58.81958%)" d="M 175.894531 44.1875 C 175.988281 45.1875 176.78125 57.871094 181.144531 64.730469 C 184.210938 69.546875 191.15625 69.363281 191.726562 69.421875 C 192.101562 69.457031 192.457031 69.707031 192.574219 70.140625 C 192.664062 70.480469 192.472656 70.796875 192.183594 70.96875 C 187.957031 73.511719 182.453125 75.535156 179.167969 80.675781 C 179.164062 80.683594 179.1875 80.648438 179.183594 80.65625 C 176.679688 87.976562 174.441406 102.253906 174.003906 104.335938 C 173.082031 104.042969 172.929688 103.355469 172.902344 102.609375 C 172.875 101.929688 171.96875 91.53125 170.90625 87.085938 L 170.945312 87.132812 C 168.558594 81.433594 165.265625 76.777344 160.203125 74.066406 C 159.21875 73.542969 156.863281 72.796875 156.105469 71.78125 C 155.980469 71.394531 162.886719 70.011719 165.449219 68.15625 C 168.949219 65.625 171.167969 60.417969 172.300781 55.910156 C 173.085938 52.78125 174.324219 42.871094 174.945312 39.679688 C 175.410156 39.429688 175.6875 41.917969 175.894531 44.1875 " fill-opacity="1" fill-rule="nonzero"/></g><g clip-path="url(#id3)"><path fill="rgb(99.21875%, 99.21875%, 58.81958%)" d="M 300.351562 115.222656 C 300.417969 115.949219 300.984375 125.132812 304.101562 130.097656 C 306.292969 133.585938 311.253906 133.453125 311.660156 133.492188 C 311.929688 133.519531 312.183594 133.699219 312.265625 134.015625 C 312.328125 134.261719 312.195312 134.488281 311.988281 134.613281 C 308.96875 136.457031 305.035156 137.917969 302.691406 141.644531 C 302.6875 141.648438 302.703125 141.625 302.703125 141.628906 C 300.914062 146.929688 299.316406 157.265625 299.003906 158.773438 C 298.34375 158.558594 298.234375 158.0625 298.214844 157.523438 C 298.195312 157.03125 297.546875 149.5 296.789062 146.285156 L 296.816406 146.316406 C 295.109375 142.191406 292.761719 138.820312 289.144531 136.859375 C 288.441406 136.476562 286.757812 135.9375 286.21875 135.203125 C 286.125 134.921875 291.0625 133.921875 292.890625 132.578125 C 295.390625 130.746094 296.976562 126.976562 297.785156 123.710938 C 298.34375 121.449219 299.230469 114.273438 299.671875 111.960938 C 300.003906 111.777344 300.203125 113.582031 300.351562 115.222656 " fill-opacity="1" fill-rule="nonzero"/></g><g clip-path="url(#id4)"><path fill="rgb(99.21875%, 99.21875%, 58.81958%)" d="M 740.074219 42.847656 C 740.140625 43.574219 740.707031 52.753906 743.824219 57.71875 C 746.015625 61.207031 750.976562 61.074219 751.382812 61.117188 C 751.652344 61.144531 751.90625 61.324219 751.988281 61.640625 C 752.050781 61.882812 751.914062 62.113281 751.710938 62.238281 C 748.6875 64.082031 744.757812 65.542969 742.414062 69.265625 C 742.410156 69.269531 742.425781 69.246094 742.425781 69.253906 C 740.632812 74.550781 739.035156 84.890625 738.726562 86.398438 C 738.066406 86.183594 737.957031 85.6875 737.9375 85.144531 C 737.917969 84.65625 737.269531 77.125 736.511719 73.90625 L 736.539062 73.941406 C 734.832031 69.816406 732.480469 66.441406 728.867188 64.480469 C 728.164062 64.101562 726.480469 63.5625 725.9375 62.828125 C 725.847656 62.546875 730.78125 61.546875 732.613281 60.203125 C 735.113281 58.367188 736.699219 54.597656 737.507812 51.335938 C 738.066406 49.070312 738.953125 41.894531 739.394531 39.585938 C 739.726562 39.402344 739.925781 41.203125 740.074219 42.847656 " fill-opacity="1" fill-rule="nonzero"/></g><g clip-path="url(#id5)"><path fill="rgb(99.21875%, 99.21875%, 58.81958%)" d="M 900.972656 98.375 C 901.0625 99.378906 901.855469 112.058594 906.222656 118.917969 C 909.289062 123.734375 916.230469 123.554688 916.804688 123.609375 C 917.179688 123.648438 917.535156 123.898438 917.648438 124.332031 C 917.738281 124.671875 917.550781 124.984375 917.261719 125.160156 C 913.03125 127.703125 907.527344 129.722656 904.246094 134.867188 C 904.242188 134.875 904.261719 134.839844 904.261719 134.847656 C 901.753906 142.167969 899.519531 156.445312 899.082031 158.527344 C 898.160156 158.230469 898.007812 157.546875 897.976562 156.800781 C 897.953125 156.121094 897.042969 145.71875 895.984375 141.277344 L 896.019531 141.320312 C 893.632812 135.625 890.339844 130.96875 885.28125 128.257812 C 884.296875 127.734375 881.9375 126.988281 881.183594 125.972656 C 881.054688 125.585938 887.960938 124.203125 890.527344 122.347656 C 894.023438 119.8125 896.246094 114.609375 897.375 110.101562 C 898.160156 106.972656 899.402344 97.0625 900.019531 93.871094 C 900.484375 93.617188 900.761719 96.109375 900.972656 98.375 " fill-opacity="1" fill-rule="nonzero"/></g><g clip-path="url(#id6)"><path fill="rgb(69.799805%, 87.059021%, 80.389404%)" d="M 1163.65625 436.199219 C 1158.527344 404.589844 1133.101562 370.679688 1150.160156 326.605469 C 1172.347656 268.980469 1154.179688 229.609375 1120.46875 211.546875 C 1114.789062 208.335938 1108.804688 205.878906 1102.515625 204.175781 C 1096.222656 202.472656 1089.816406 201.578125 1083.300781 201.484375 C 1045.996094 201.484375 1038.058594 222.875 1000.082031 219.359375 C 979.433594 217.441406 968.714844 213.953125 925.582031 202.703125 C 826.25 176.988281 800.527344 269.089844 886.121094 310.785156 C 889.546875 312.460938 896.917969 317.4375 900.398438 319.382812 C 929.550781 335.609375 925.664062 327.765625 955.410156 375.871094 C 974.65625 406.996094 959.457031 432.035156 991.417969 465.109375 C 1018.597656 493.148438 1054.796875 505.398438 1093.988281 506.210938 C 1104.324219 505.289062 1124.460938 505.507812 1144.976562 489.417969 C 1153.019531 483.089844 1166.757812 455.699219 1163.65625 436.199219 Z M 1163.65625 436.199219 " fill-opacity="1" fill-rule="nonzero"/></g><g clip-path="url(#id7)"><path fill="rgb(69.799805%, 87.059021%, 80.389404%)" d="M 962.152344 436.199219 C 957.023438 404.589844 931.59375 370.679688 948.65625 326.605469 C 970.84375 268.980469 952.675781 229.609375 918.964844 211.546875 C 913.285156 208.335938 907.300781 205.878906 901.007812 204.175781 C 894.714844 202.472656 888.3125 201.578125 881.792969 201.484375 C 844.492188 201.484375 836.554688 222.875 798.578125 219.359375 C 777.925781 217.441406 767.210938 213.953125 724.078125 202.703125 C 624.746094 176.988281 599.023438 269.089844 684.613281 310.785156 C 688.042969 312.460938 695.410156 317.4375 698.894531 319.382812 C 728.046875 335.609375 724.160156 327.765625 753.902344 375.871094 C 773.148438 406.996094 757.953125 432.035156 789.910156 465.109375 C 817.09375 493.148438 853.289062 505.398438 892.484375 506.210938 C 902.820312 505.289062 922.957031 505.507812 943.472656 489.417969 C 951.515625 483.089844 965.253906 455.699219 962.152344 436.199219 Z M 962.152344 436.199219 " fill-opacity="1" fill-rule="nonzero"/></g><g clip-path="url(#id8)"><path fill="rgb(69.799805%, 87.059021%, 80.389404%)" d="M 765.566406 436.199219 C 760.4375 404.589844 735.011719 370.679688 752.070312 326.605469 C 774.257812 268.980469 756.09375 229.609375 722.378906 211.546875 C 716.703125 208.335938 710.71875 205.878906 704.425781 204.175781 C 698.132812 202.472656 691.726562 201.578125 685.210938 201.484375 C 647.90625 201.484375 639.96875 222.875 601.992188 219.359375 C 581.34375 217.441406 570.625 213.953125 527.492188 202.703125 C 428.160156 176.988281 402.4375 269.089844 488.03125 310.785156 C 491.457031 312.460938 498.828125 317.4375 502.308594 319.382812 C 531.460938 335.609375 527.574219 327.765625 557.320312 375.871094 C 576.566406 406.996094 561.367188 432.035156 593.328125 465.109375 C 620.507812 493.148438 656.707031 505.398438 695.898438 506.210938 C 706.238281 505.289062 726.375 505.507812 746.886719 489.417969 C 754.929688 483.089844 768.671875 455.699219 765.566406 436.199219 Z M 765.566406 436.199219 " fill-opacity="1" fill-rule="nonzero"/></g><g clip-path="url(#id9)"><path fill="rgb(69.799805%, 87.059021%, 80.389404%)" d="M 564.761719 436.199219 C 559.632812 404.589844 534.203125 370.679688 551.265625 326.605469 C 573.453125 268.980469 555.285156 229.609375 521.574219 211.546875 C 515.894531 208.335938 509.910156 205.878906 503.617188 204.175781 C 497.328125 202.472656 490.921875 201.578125 484.402344 201.484375 C 447.101562 201.484375 439.164062 222.875 401.1875 219.359375 C 380.535156 217.441406 369.820312 213.953125 326.6875 202.703125 C 227.355469 176.988281 201.632812 269.089844 287.222656 310.785156 C 290.652344 312.460938 298.019531 317.4375 301.503906 319.382812 C 330.65625 335.609375 326.769531 327.765625 356.515625 375.871094 C 375.757812 406.996094 360.5625 432.035156 392.523438 465.109375 C 419.703125 493.148438 455.898438 505.398438 495.09375 506.210938 C 505.429688 505.289062 525.566406 505.507812 546.082031 489.417969 C 554.125 483.089844 567.863281 455.699219 564.761719 436.199219 Z M 564.761719 436.199219 " fill-opacity="1" fill-rule="nonzero"/></g><path fill="rgb(58.81958%, 35.289001%, 34.899902%)" d="M 544.972656 79.664062 C 544.972656 79.664062 542.402344 99.785156 565.972656 99.785156 C 589.542969 99.785156 586.113281 76.238281 586.113281 76.238281 C 586.113281 76.238281 580.117188 62.539062 565.542969 62.539062 C 550.972656 62.539062 544.972656 79.664062 544.972656 79.664062 Z M 560.402344 99.785156 C 561.214844 108.308594 555.6875 108.773438 536.828125 120.761719 C 517.972656 132.75 514.972656 163.574219 514.972656 163.574219 L 568.542969 181.984375 L 574.972656 178.128906 L 619.96875 164.859375 C 619.96875 164.859375 622.113281 153.726562 613.972656 135.746094 C 605.828125 117.765625 589.761719 114.585938 579.257812 110.914062 C 570.6875 107.917969 569.828125 99.785156 569.828125 99.785156 C 569.828125 99.785156 559.542969 90.792969 560.402344 99.785156 Z M 553.117188 190.117188 L 536.402344 205.527344 C 539.402344 206.8125 547.972656 203.386719 552.6875 201.675781 C 557.402344 199.964844 561.257812 199.105469 563.828125 199.964844 C 566.398438 200.820312 574.972656 203.386719 574.972656 203.386719 L 580.117188 193.113281 Z M 565.578125 211.027344 C 565.578125 211.027344 574.542969 211.09375 577.113281 210.664062 C 579.683594 210.238281 582.675781 207.171875 582.675781 207.171875 L 603.769531 217.574219 C 603.769531 217.574219 586.972656 214.949219 581.828125 216.230469 C 576.6875 217.515625 571.972656 218.371094 571.972656 218.371094 L 565.578125 211.027344 " fill-opacity="1" fill-rule="nonzero"/><path fill="rgb(98.429871%, 78.819275%, 81.17981%)" d="M 599.1875 127.183594 C 591.964844 127.183594 586.113281 133.03125 586.113281 140.242188 C 586.113281 147.453125 591.964844 153.300781 599.1875 153.300781 C 606.40625 153.300781 612.257812 147.453125 612.257812 140.242188 C 612.257812 133.03125 606.40625 127.183594 599.1875 127.183594 Z M 550.117188 140.242188 C 550.117188 147.453125 544.261719 153.300781 537.042969 153.300781 C 529.824219 153.300781 523.972656 147.453125 523.972656 140.242188 C 523.972656 133.03125 529.824219 127.183594 537.042969 127.183594 C 544.261719 127.183594 550.117188 133.03125 550.117188 140.242188 " fill-opacity="1" fill-rule="nonzero"/><g clip-path="url(#id10)"><path fill="rgb(17.649841%, 16.079712%, 15.289307%)" d="M 565.542969 54.40625 C 534.6875 54.40625 540.6875 95.929688 549.257812 98.070312 C 549.257812 98.070312 541.972656 99.785156 544.542969 107.917969 C 545.328125 110.398438 547.578125 111.835938 550.21875 112.65625 C 558.390625 107.800781 560.972656 105.792969 560.402344 99.785156 C 560.386719 99.632812 560.375 99.488281 560.367188 99.347656 C 546.046875 96.949219 544.851562 85.332031 544.890625 81.160156 C 544.929688 81.152344 560.835938 77.941406 565.542969 69.816406 C 565.542969 69.816406 570.175781 81.011719 586.28125 79.910156 C 586.152344 86.050781 584 97.890625 569.585938 99.578125 C 569.742188 99.707031 569.828125 99.785156 569.828125 99.785156 C 569.828125 99.785156 570.6875 107.917969 579.257812 110.914062 C 580.53125 111.359375 581.886719 111.796875 583.296875 112.253906 C 585.90625 111.65625 589.050781 110.121094 589.542969 106.207031 C 590.398438 99.355469 584.828125 98.070312 582.6875 97.644531 C 591.257812 90.792969 598.113281 54.40625 565.542969 54.40625 Z M 557.402344 85.65625 C 557.402344 86.128906 557.785156 86.511719 558.257812 86.511719 C 558.730469 86.511719 559.113281 86.128906 559.113281 85.65625 C 559.113281 85.183594 558.730469 84.800781 558.257812 84.800781 C 557.785156 84.800781 557.402344 85.183594 557.402344 85.65625 Z M 574.113281 85.65625 C 574.113281 85.183594 573.730469 84.800781 573.257812 84.800781 C 572.785156 84.800781 572.402344 85.183594 572.402344 85.65625 C 572.402344 86.128906 572.785156 86.511719 573.257812 86.511719 C 573.730469 86.511719 574.113281 86.128906 574.113281 85.65625 Z M 542.453125 138.742188 C 539.878906 138.742188 539.023438 135.316406 541.167969 133.605469 C 543.308594 131.890625 543.582031 128.90625 543.582031 128.90625 C 536.136719 124.636719 524.878906 128.898438 524.023438 138.320312 C 523.164062 147.742188 530.449219 151.585938 530.449219 151.585938 C 530.449219 151.585938 542.878906 147.304688 545.023438 145.164062 C 547.164062 143.023438 545.023438 138.742188 542.453125 138.742188 Z M 612.257812 138.320312 C 611.398438 128.898438 600.140625 124.636719 592.699219 128.90625 C 592.699219 128.90625 592.972656 131.890625 595.113281 133.605469 C 597.257812 135.316406 596.398438 138.742188 593.828125 138.742188 C 591.257812 138.742188 589.113281 143.023438 591.257812 145.164062 C 593.402344 147.304688 605.828125 151.585938 605.828125 151.585938 C 605.828125 151.585938 613.113281 147.742188 612.257812 138.320312 Z M 572.828125 134.050781 C 572.839844 133.816406 572.65625 133.617188 572.417969 133.605469 C 572.1875 133.59375 571.984375 133.777344 571.972656 134.015625 C 571.96875 134.097656 571.722656 141.003906 576.40625 145.253906 C 576.722656 145.148438 577.039062 145.042969 577.355469 144.9375 C 572.589844 141 572.824219 134.132812 572.828125 134.050781 Z M 564.253906 134.015625 C 564.257812 134.09375 564.496094 140.875 559.941406 145.136719 C 559.695312 144.976562 559.449219 144.816406 559.195312 144.660156 C 563.625 140.683594 563.398438 134.128906 563.398438 134.050781 C 563.386719 133.816406 563.570312 133.617188 563.804688 133.605469 C 564.042969 133.585938 564.242188 133.777344 564.253906 134.015625 " fill-opacity="1" fill-rule="nonzero"/></g><g clip-path="url(#id11)"><path fill="rgb(46.269226%, 63.139343%, 60.778809%)" d="M 599.324219 170.949219 L 574.972656 178.128906 L 568.542969 181.984375 L 532.257812 169.515625 L 486.257812 217.515625 C 486.257812 217.515625 490.117188 232.925781 510.257812 229.929688 C 530.402344 226.933594 571.972656 218.371094 571.972656 218.371094 L 556.390625 200.472656 C 555.226562 200.796875 553.992188 201.203125 552.6875 201.675781 C 547.972656 203.386719 539.402344 206.8125 536.402344 205.527344 L 553.117188 190.117188 L 580.117188 193.113281 L 574.972656 203.386719 C 574.972656 203.386719 598.542969 214.949219 610.542969 220.941406 C 622.542969 226.933594 642.257812 223.9375 647.828125 211.523438 Z M 553.542969 168.285156 L 529.113281 150.730469 C 529.113281 150.730469 529.972656 139.597656 546.257812 140.457031 C 562.542969 141.3125 571.972656 157.578125 571.972656 157.578125 L 553.542969 168.285156 " fill-opacity="1" fill-rule="nonzero"/></g><path fill="rgb(99.609375%, 94.898987%, 91.758728%)" d="M 584.398438 165.714844 C 584.398438 165.714844 580.117188 161.859375 573.257812 164.429688 C 566.398438 166.996094 563.828125 171.277344 563.828125 171.277344 C 556.972656 172.5625 553.542969 168.285156 553.542969 168.285156 C 555.257812 154.15625 568.113281 147.304688 580.972656 143.878906 C 593.828125 140.457031 605.828125 151.585938 605.828125 151.585938 L 584.398438 165.714844 " fill-opacity="1" fill-rule="nonzero"/><g clip-path="url(#id12)"><path fill="rgb(69.799805%, 87.059021%, 80.389404%)" d="M 364.1875 436.199219 C 359.058594 404.589844 333.628906 370.679688 350.691406 326.605469 C 372.878906 268.980469 354.710938 229.609375 321 211.546875 C 315.320312 208.335938 309.335938 205.878906 303.042969 204.175781 C 296.75 202.472656 290.347656 201.578125 283.828125 201.484375 C 246.527344 201.484375 238.589844 222.875 200.613281 219.359375 C 179.960938 217.441406 169.246094 213.953125 126.113281 202.703125 C 26.78125 176.988281 1.054688 269.089844 86.648438 310.785156 C 90.078125 312.460938 97.445312 317.4375 100.929688 319.382812 C 130.082031 335.609375 126.195312 327.765625 155.9375 375.871094 C 175.183594 406.996094 159.988281 432.035156 191.945312 465.109375 C 219.128906 493.148438 255.324219 505.398438 294.519531 506.210938 C 304.855469 505.289062 324.992188 505.507812 345.507812 489.417969 C 353.550781 483.089844 367.289062 455.699219 364.1875 436.199219 Z M 364.1875 436.199219 " fill-opacity="1" fill-rule="nonzero"/></g><g clip-path="url(#id13)"><path fill="rgb(69.799805%, 87.059021%, 80.389404%)" d="M 159.984375 436.199219 C 154.855469 404.589844 129.429688 370.679688 146.488281 326.605469 C 168.675781 268.980469 150.511719 229.609375 116.796875 211.546875 C 111.121094 208.335938 105.136719 205.878906 98.84375 204.175781 C 92.550781 202.472656 86.144531 201.578125 79.628906 201.484375 C 42.324219 201.484375 34.390625 222.875 -3.589844 219.359375 C -24.238281 217.441406 -34.953125 213.953125 -78.089844 202.703125 C -177.421875 176.988281 -203.144531 269.089844 -117.550781 310.785156 C -114.125 312.460938 -106.753906 317.4375 -103.273438 319.382812 C -74.121094 335.609375 -78.007812 327.765625 -48.261719 375.871094 C -29.015625 406.996094 -44.214844 432.035156 -12.253906 465.109375 C 14.925781 493.148438 51.125 505.398438 90.316406 506.210938 C 100.65625 505.289062 120.792969 505.507812 141.304688 489.417969 C 149.351562 483.089844 163.089844 455.699219 159.984375 436.199219 Z M 159.984375 436.199219 " fill-opacity="1" fill-rule="nonzero"/></g></svg>