<svg width="946" height="1083" viewBox="0 0 946 1083" fill="none" xmlns="http://www.w3.org/2000/svg">
<path d="M670.69 123.534C731.818 19.335 875.701 -12.8534 974.665 51.243C1109.67 138.665 1165.88 189.693 1085.61 491.621C1028.49 706.435 1065.22 867.519 923.995 924.579C332.42 1163.59 -158.307 567.158 304.959 379.986C462.509 316.332 556.652 391.286 660.834 142.867C663.431 136.674 666.724 130.198 670.69 123.534Z" fill="url(#paint0_linear_2394_68)"/>
<path d="M670.69 123.534C731.818 19.335 875.701 -12.8534 974.665 51.243C1109.67 138.665 1165.88 189.693 1085.61 491.621C1028.49 706.435 1065.22 867.519 923.995 924.579C332.42 1163.59 -158.307 567.158 304.959 379.986C462.509 316.332 556.652 391.286 660.834 142.867C663.431 136.674 666.724 130.198 670.69 123.534Z" fill="url(#paint1_linear_2394_68)"/>
<path d="M670.69 123.534C731.818 19.335 875.701 -12.8534 974.665 51.243C1109.67 138.665 1165.88 189.693 1085.61 491.621C1028.49 706.435 1065.22 867.519 923.995 924.579C332.42 1163.59 -158.307 567.158 304.959 379.986C462.509 316.332 556.652 391.286 660.834 142.867C663.431 136.674 666.724 130.198 670.69 123.534Z" fill="url(#paint2_linear_2394_68)"/>
<path d="M670.69 123.534C731.818 19.335 875.701 -12.8534 974.665 51.243C1109.67 138.665 1165.88 189.693 1085.61 491.621C1028.49 706.435 1065.22 867.519 923.995 924.579C332.42 1163.59 -158.307 567.158 304.959 379.986C462.509 316.332 556.652 391.286 660.834 142.867C663.431 136.674 666.724 130.198 670.69 123.534Z" fill="url(#paint3_linear_2394_68)"/>
<defs>
<linearGradient id="paint0_linear_2394_68" x1="834.821" y1="960.608" x2="504.884" y2="143.986" gradientUnits="userSpaceOnUse">
<stop offset="0.348958" stop-color="#D0BBF4"/>
<stop offset="1" stop-color="#D3EDE3"/>
</linearGradient>
<linearGradient id="paint1_linear_2394_68" x1="834.821" y1="960.608" x2="504.884" y2="143.986" gradientUnits="userSpaceOnUse">
<stop offset="0.348958" stop-color="#D0BBF4"/>
<stop offset="1" stop-color="#D3EDE3"/>
</linearGradient>
<linearGradient id="paint2_linear_2394_68" x1="834.821" y1="960.608" x2="504.884" y2="143.986" gradientUnits="userSpaceOnUse">
<stop offset="0.348958" stop-color="#D0BBF4"/>
<stop offset="1" stop-color="#D3EDE3"/>
</linearGradient>
<linearGradient id="paint3_linear_2394_68" x1="834.821" y1="960.608" x2="504.884" y2="143.986" gradientUnits="userSpaceOnUse">
<stop offset="0.348958" stop-color="#D0BBF4"/>
<stop offset="1" stop-color="#D3EDE3"/>
</linearGradient>
</defs>
</svg>
