<svg width="400" height="400" viewBox="0 0 400 400" fill="none" xmlns="http://www.w3.org/2000/svg">
<g clip-path="url(#clip0_2261_31)">
<path d="M440 -40H-40V440H440V-40Z" fill="white"/>
<path d="M440 -40H-40V440H440V-40Z" fill="white"/>
<path d="M440 -40H-40V440H440V-40Z" fill="white"/>
<path d="M80.7029 135.364C78.1768 136.864 80.4737 140.817 83.0102 139.307C133.291 109.364 197.854 132.463 241.479 164.031C264.328 180.562 278.781 202.458 295.593 224.52C309.521 242.807 326.724 257.505 350.656 258.114C353.604 258.192 353.599 253.625 350.656 253.547C319.255 252.75 301.849 225.854 285.442 202.75C270.567 181.812 252.328 164.958 230.656 151.182C187.666 123.859 127.297 107.614 80.7029 135.364Z" fill="#76A19B"/>
<path d="M280.411 225.907C279.052 223.287 275.115 225.599 276.469 228.203C287.12 248.735 315.063 285.464 342.005 271.391C344.615 270.026 342.302 266.089 339.698 267.448C315.766 279.948 289.719 243.839 280.411 225.907Z" fill="#76A19B"/>
<path d="M263.094 258.859C271.849 271.343 282.172 290.072 297.891 294.473C300.729 295.265 301.938 290.859 299.104 290.067C284.781 286.062 275.011 267.927 267.031 256.557C265.359 254.166 261.396 256.442 263.094 258.859Z" fill="#76A19B"/>
<path d="M321.297 296.754C317.521 297.78 313.536 298.286 309.693 297.306C306.839 296.577 305.63 300.983 308.479 301.713C313.109 302.89 317.948 302.4 322.51 301.161C325.349 300.384 324.146 295.983 321.297 296.754Z" fill="#76A19B"/>
<path d="M334.688 292.527C332.005 293.745 334.328 297.678 336.99 296.469C340.985 294.657 344.157 291.662 347.479 288.865C349.735 286.969 346.49 283.756 344.25 285.641C341.209 288.198 338.344 290.865 334.688 292.527Z" fill="#76A19B"/>
<path d="M106.307 268.984C115.286 257.911 125.765 248.672 138.479 242.109C141.093 240.755 138.786 236.823 136.172 238.166C123.14 244.896 112.291 254.396 103.083 265.755C101.245 268.026 104.453 271.271 106.307 268.984Z" fill="#76A19B"/>
<path d="M154.979 234.13C153.656 234.682 152.448 234.797 151.021 234.807C148.078 234.817 148.078 239.385 151.021 239.37C152.823 239.359 154.521 239.239 156.192 238.531C158.864 237.406 157.692 232.989 154.979 234.13Z" fill="#76A19B"/>
<path d="M51.7341 242.344C65.6976 210.88 98.5466 185.849 131.083 176.13C133.896 175.286 132.698 170.88 129.869 171.724C96.3018 181.755 62.2184 207.531 47.7913 240.042C46.6091 242.708 50.5413 245.036 51.7341 242.344Z" fill="#76A19B"/>
<path d="M146.25 170.725C145.032 170.725 143.198 170.725 141.979 170.725C138.927 170.725 138.927 175.61 141.979 175.61C141.979 175.61 145.032 175.61 146.25 175.61C149.308 175.61 149.308 170.725 146.25 170.725Z" fill="#76A19B"/>
<path d="M58.5835 188.798C68.5731 174.298 81.0262 163.37 97.771 157.522C113.703 151.954 131.307 151.902 147.979 151.855C150.922 151.844 150.927 147.277 147.979 147.287C129.75 147.339 111.354 147.949 93.9845 154.011C77.2293 159.87 64.5366 172.126 54.646 186.495C52.9689 188.923 56.9272 191.204 58.5835 188.798Z" fill="#76A19B"/>
<path d="M193.589 116.447C190.87 116.473 188.172 116.28 185.537 115.499C183.964 115.025 182.792 113.994 181.912 112.645C181.604 112.181 181.458 111.859 181.37 111.64C182.307 111.78 183.396 112.239 184.057 112.447C187.37 113.468 190.5 114.905 193.589 116.447ZM179.63 117.129C184.672 122.864 195.135 120.905 201.995 120.666C202.875 121.077 203.76 121.478 204.656 121.859C207.339 122.994 209.667 119.056 206.964 117.916C206.109 117.556 205.271 117.171 204.427 116.775C204.104 116.4 203.625 116.15 203.01 116.098C199.719 114.494 196.484 112.734 193.156 111.208C189.068 109.348 183.708 106.379 179.052 107.291C173.792 108.317 177.818 115.067 179.63 117.129Z" fill="#76A19B"/>
<path d="M109.563 104.89C109.308 104.853 109.047 104.781 108.792 104.687C108.886 104.588 108.974 104.489 109.073 104.395C109.12 104.353 109.167 104.312 109.219 104.281C109.344 104.478 109.459 104.682 109.563 104.89ZM103.396 104.281C102.797 105.208 103.089 106.39 103.839 107.103C103.854 107.603 104.052 108.109 104.516 108.562C106.453 110.447 109.323 112.468 112.052 110.843C113.552 109.952 114.219 108.187 114.334 106.463C114.375 106.15 114.375 105.833 114.344 105.505C114.334 105.307 114.318 105.119 114.297 104.932C114.011 102.656 112.948 100.265 110.547 99.6035C107.36 98.718 104.865 101.989 103.396 104.281Z" fill="#76A19B"/>
<path d="M257.948 246.536C245.469 237.557 232.885 228.781 218.005 224.349C202.12 219.619 185.099 222.401 169.437 226.52C166.594 227.265 167.802 231.677 170.651 230.922C186.901 226.656 202.995 224.64 219.323 229.505C232.713 233.494 244.458 242.432 255.64 250.479C258.031 252.203 260.307 248.239 257.948 246.536Z" fill="#76A19B"/>
<path d="M268.521 218.458C270.084 220.942 274.037 218.65 272.459 216.155C249.151 179.228 206.636 156.458 163.964 151.093C161.047 150.728 161.078 155.301 163.964 155.661C204.964 160.817 246.151 183.02 268.521 218.458Z" fill="#76A19B"/>
<path d="M163.302 103.214C166.089 106.297 156.766 109.579 157.344 105.245C157.745 104.881 158.036 104.381 158.094 103.714C158.385 100.485 161.672 101.412 163.302 103.214ZM153.719 102.506C153.38 102.771 153.12 103.172 152.995 103.719C151.703 109.448 156.802 112.745 162.016 111.573C165.911 110.698 169.255 106.589 168.036 102.558C167.042 99.2714 163.661 97.3911 160.453 96.9953C156.766 96.537 154.427 99.2974 153.719 102.506Z" fill="#9098E0"/>
<path d="M129.521 99.5943C129.568 99.5943 129.604 99.5943 129.646 99.5943C129.599 99.5943 129.552 99.6048 129.505 99.61C129.51 99.6048 129.516 99.5996 129.521 99.5943ZM132.547 100.641C132.568 97.8027 128.344 97.7141 128.016 100.344C126.891 101.657 127.427 104.23 129.651 104.157C131.797 104.084 132.531 102.605 132.547 100.641Z" fill="#9098E0"/>
<path d="M265.88 156.692C268.24 155.312 270.005 153.004 270.792 150.213C274.917 154.223 279.505 157.635 284.365 160.692C280.953 161.062 277.75 162.114 275.688 164.291C273.412 160.994 269.709 158.65 265.88 156.692ZM266.761 144.431C266.625 144.734 266.563 145.088 266.604 145.51C267.157 150.614 263.834 154.812 258.433 153.14C255.985 152.385 254.334 156.171 256.672 157.317C262.24 160.046 272.875 163.343 273.365 170.713C273.37 172.239 274.604 172.968 275.787 172.911C276.933 172.911 278.026 172.181 277.933 170.713C277.896 163.822 288.219 164.692 292.865 165.536C295.287 165.978 297.032 162.666 294.62 161.364C285.646 156.52 277.261 151.02 270.505 143.28C269.146 141.723 267.162 142.859 266.761 144.431Z" fill="#9098E0"/>
<path d="M309.604 219.599C318.38 233.083 331.438 244.625 347.49 248.052C350.365 248.661 351.583 244.26 348.703 243.646C333.792 240.469 321.703 229.828 313.542 217.297C311.948 214.838 307.99 217.125 309.604 219.599Z" fill="#9098E0"/>
<path d="M179.229 186.77C176.354 186.338 175.114 190.739 178.02 191.176C213.375 196.489 244.729 212.145 266.828 240.791C283.672 262.619 298.13 284.973 328.38 285.853C331.323 285.942 331.317 281.374 328.38 281.291C293.255 280.265 280.395 247.051 259.073 224.879C237.927 202.89 208.932 191.234 179.229 186.77Z" fill="#9098E0"/>
<path d="M78.3642 266.973C93.0413 228.249 129.661 197.604 170.651 191.177C173.552 190.718 172.317 186.322 169.437 186.77C126.807 193.458 89.1715 225.63 73.9632 265.76C72.9163 268.515 77.3278 269.697 78.3642 266.973Z" fill="#9098E0"/>
<path d="M285.834 182.844C290.829 192.532 297.542 201.177 302.532 210.86C303.881 213.48 307.818 211.167 306.474 208.558C301.485 198.875 294.771 190.224 289.776 180.547C288.428 177.927 284.485 180.24 285.834 182.844Z" fill="#9098E0"/>
<path d="M212.338 126.26C226.213 130.911 242.818 136.093 251.906 148.369C253.635 150.713 257.604 148.437 255.849 146.067C245.932 132.666 228.75 126.952 213.552 121.853C210.755 120.921 209.562 125.327 212.338 126.26Z" fill="#9098E0"/>
</g>
<defs>
<clipPath id="clip0_2261_31">
<rect width="400" height="400" fill="white"/>
</clipPath>
</defs>
</svg>
