<svg width="392" height="94" viewBox="0 0 392 94" fill="none" xmlns="http://www.w3.org/2000/svg">
<path fill-rule="evenodd" clip-rule="evenodd" d="M32 0C32.6875 0 33.3333 0.338542 33.724 0.901042C34.9583 2.69792 63.9948 45.0885 63.9948 62.0365V62.1667C63.9948 67.1354 62.0052 71.7552 58.3906 75.1771C54.7969 78.5781 50.1042 80.3073 45.1667 80.0417C37.8125 79.6458 32.1823 76.3177 31.2708 75.75C29.651 74.9479 14.3438 67.1094 14.3438 55.5156C14.3438 49.2708 18.1979 44.9115 23.7083 44.9115C26.7083 44.9115 29.8958 47.349 31.9688 49.5104C33.9844 47.3177 37.0156 44.9115 40.026 44.9115C45.6042 44.9115 49.651 49.3698 49.651 55.5156C49.651 59.7448 47.1823 64.2448 42.3073 68.8906C41.4688 69.6875 40.1458 69.6562 39.349 68.8229C38.5521 67.9844 38.5833 66.6667 39.4219 65.8698C43.375 62.099 45.4688 58.5156 45.4688 55.5156C45.4688 52.3177 43.7865 49.0885 40.026 49.0885C38.2969 49.0885 35.3125 51.6667 33.724 53.9792C33.3333 54.5469 32.6875 54.8854 32 54.8854C31.3073 54.8854 30.6667 54.5469 30.276 53.9792C28.75 51.7604 25.4844 49.0885 23.7083 49.0885C19.8906 49.0885 18.526 52.4062 18.526 55.5156C18.526 63.3021 29.1198 70.0833 33.1979 72.0417C33.2812 72.0781 33.3594 72.125 33.4375 72.1719C33.4844 72.2031 38.6771 75.5104 45.3906 75.8698C49.1667 76.0729 52.7604 74.75 55.5156 72.1458C58.2865 69.5208 59.8125 65.9792 59.8125 62.1667V62.0365C59.8125 48.6094 38.3177 15.3177 32 5.82812C27.2135 13.0156 13.724 33.8594 7.44792 49.4792C5.28125 54.8698 4.18229 59.0938 4.18229 62.0365C4.18229 77.3594 16.6615 89.8229 32 89.8229C38.7969 89.8229 45.3438 87.3438 50.4271 82.849C51.2917 82.0833 52.6146 82.1667 53.3802 83.026C54.1458 83.8906 54.0625 85.2135 53.1979 85.974C47.349 91.151 39.8229 94 32 94C14.3542 94 0 79.6615 0 62.0365C0 58.5104 1.16667 53.8906 3.5625 47.9271C11.4062 28.4115 29.5104 2.01563 30.276 0.901042C30.6667 0.338542 31.3073 0 32 0ZM116.66 50.2271C115.978 48.4667 115.64 45.998 115.64 42.8313L115.577 10.1438C115.463 9.70111 114.963 9.3209 114.077 8.99798C113.202 8.68027 112.223 8.51881 111.14 8.51881C109.348 8.51881 107.827 8.74277 106.577 9.18548C103.937 16.7428 100.202 26.9042 95.3688 39.6646C92.3271 32.3886 89.4209 25.2636 86.6605 18.2896L83.2438 9.83131C82.4105 8.95631 81.1501 8.51881 79.473 8.51881C76.7907 8.51881 75.1501 8.8209 74.5563 9.41465C74.8323 11.498 74.973 14.1178 74.973 17.2688V48.8938C74.973 50.8521 75.7698 51.8313 77.3688 51.8313C78.4105 51.8313 79.2907 51.5084 80.0146 50.873C79.2907 48.9563 78.9313 46.3001 78.9313 42.8938L78.8688 17.0396C80.5459 21.8053 82.4573 26.7376 84.598 31.8313C86.7334 36.9303 88.848 41.6386 90.9313 45.9563C91.848 46.3209 92.7646 46.498 93.6813 46.498C94.723 46.498 96.0198 46.2428 97.5771 45.7271L108.556 17.3938L108.619 48.0605C108.619 49.2167 108.983 50.1334 109.723 50.8105C110.473 51.4876 111.41 51.8313 112.535 51.8313C113.452 51.8313 114.265 51.6542 114.973 51.3105C115.692 50.9771 116.254 50.6178 116.66 50.2271ZM153.387 45.3522C153.898 46.1178 154.158 46.9042 154.158 47.7063C154.158 48.8209 153.679 49.748 152.72 50.498C151.762 51.2324 150.502 51.6022 148.95 51.6022C147.033 51.6022 145.554 50.9563 144.512 49.6647C143.47 48.3626 142.887 46.2428 142.762 43.3105C141.606 45.8417 140.012 47.8522 137.97 49.3522C135.929 50.8522 133.564 51.6022 130.887 51.6022C128.564 51.6022 126.689 50.9876 125.262 49.748C123.845 48.498 123.137 46.7792 123.137 44.5813C123.137 42.0292 124.106 39.9303 126.054 38.2897C127.996 36.6386 130.47 35.3938 133.47 34.5605C136.148 33.8001 139.106 33.4147 142.345 33.4147V31.8522C142.345 28.4511 141.892 25.9303 140.991 24.2897C140.085 22.6542 138.601 21.8313 136.533 21.8313C135.127 21.8313 133.981 22.2063 133.095 22.9563C132.22 23.6959 131.783 24.8626 131.783 26.4563C131.783 27.373 131.95 28.2376 132.283 29.0397C132.627 29.8469 133.205 30.4459 134.012 30.8313C133.606 31.2792 133.054 31.6126 132.345 31.8313C131.648 32.0553 130.908 32.1647 130.116 32.1647C128.434 32.1647 127.08 31.6438 126.054 30.6022C125.038 29.5605 124.533 28.2636 124.533 26.7063C124.533 24.3469 125.637 22.5292 127.845 21.248C130.064 19.9563 133.101 19.3105 136.95 19.3105C141.351 19.3105 144.564 20.3469 146.595 22.4147C148.637 24.4719 149.658 27.7792 149.658 32.3313V43.0813C149.658 45.1959 150.335 46.248 151.7 46.248C151.976 46.248 152.273 46.1803 152.595 46.0397C152.929 45.9042 153.189 45.6751 153.387 45.3522ZM134.116 46.9147C135.366 46.9147 136.648 46.4147 137.97 45.4147C139.288 44.4147 140.387 43.0709 141.262 41.373C142.148 39.6647 142.595 37.8105 142.595 35.8105C139.387 35.7428 136.845 36.1647 134.97 37.0813C133.731 37.6803 132.752 38.4772 132.033 39.4772C131.309 40.4772 130.95 41.6178 130.95 42.8938C130.95 44.0605 131.205 45.0292 131.72 45.7897C132.246 46.5397 133.043 46.9147 134.116 46.9147ZM203.961 50.2272C203.237 48.3417 202.878 45.873 202.878 42.8313V31.498C202.878 23.373 199.841 19.3105 193.774 19.3105C191.451 19.3105 189.482 19.9459 187.857 21.2063C186.232 22.4719 185.045 24.2219 184.295 26.4563C183.722 24.0553 182.753 22.2636 181.378 21.0813C180.003 19.9042 178.112 19.3105 175.711 19.3105C173.305 19.3105 171.305 19.9667 169.711 21.2688C168.112 22.5761 166.93 24.3886 166.17 26.7063C166.086 24.2636 165.529 22.4303 164.503 21.2063C163.487 19.9876 162.086 19.373 160.295 19.373C158.888 19.373 157.779 19.7376 156.961 20.4563C156.138 21.1803 155.732 22.1386 155.732 23.3313C155.732 24.2219 155.966 25.0084 156.44 25.6855C156.607 25.3678 156.847 25.1334 157.17 24.9772C157.487 24.8105 157.805 24.7272 158.128 24.7272C159.362 24.7272 159.982 25.7844 159.982 27.8938L160.045 47.748C160.045 48.998 160.425 49.9928 161.19 50.7272C161.951 51.4615 162.93 51.8313 164.128 51.8313C165.086 51.8313 165.862 51.6751 166.461 51.373C167.055 51.0813 167.638 50.7167 168.211 50.2688C167.638 48.8834 167.295 47.4355 167.17 45.9355C167.055 44.4355 167.003 41.4459 167.003 36.9563C167.003 32.2792 167.597 28.7428 168.795 26.3522C170.003 23.9511 171.524 22.748 173.357 22.748C175.076 22.748 176.263 23.5501 176.92 25.1438C177.586 26.7428 177.92 29.2219 177.92 32.5813V48.0605C177.92 49.2167 178.3 50.1334 179.065 50.8105C179.826 51.4876 180.763 51.8313 181.878 51.8313C183.321 51.8313 184.659 51.2949 185.899 50.2272C185.19 48.3417 184.836 45.873 184.836 42.8313V36.4147C184.862 33.4563 185.196 30.9511 185.836 28.8938C186.487 26.8261 187.315 25.2844 188.315 24.2688C189.315 23.2584 190.367 22.748 191.482 22.748C193.201 22.748 194.341 23.5813 194.899 25.248C195.466 26.9042 195.753 29.3469 195.753 32.5813L195.815 48.0605C195.815 49.2167 196.19 50.1334 196.94 50.8105C197.701 51.4876 198.68 51.8313 199.878 51.8313C201.362 51.8313 202.722 51.2949 203.961 50.2272ZM239.367 45.3522C239.877 46.1178 240.138 46.9042 240.138 47.7063C240.138 48.8209 239.659 49.748 238.7 50.498C237.742 51.2324 236.482 51.6022 234.93 51.6022C233.013 51.6022 231.534 50.9563 230.492 49.6647C229.45 48.3626 228.867 46.2428 228.742 43.3105C227.586 45.8417 225.992 47.8522 223.95 49.3522C221.909 50.8522 219.544 51.6022 216.867 51.6022C214.544 51.6022 212.669 50.9876 211.242 49.748C209.825 48.498 209.117 46.7792 209.117 44.5813C209.117 42.0292 210.086 39.9303 212.034 38.2897C213.976 36.6386 216.45 35.3938 219.45 34.5605C222.127 33.8001 225.086 33.4147 228.325 33.4147V31.8522C228.325 28.4511 227.872 25.9303 226.971 24.2897C226.065 22.6542 224.581 21.8313 222.513 21.8313C221.107 21.8313 219.961 22.2063 219.075 22.9563C218.2 23.6959 217.763 24.8626 217.763 26.4563C217.763 27.373 217.93 28.2376 218.263 29.0397C218.607 29.8469 219.185 30.4459 219.992 30.8313C219.586 31.2792 219.034 31.6126 218.325 31.8313C217.627 32.0553 216.888 32.1647 216.096 32.1647C214.414 32.1647 213.06 31.6438 212.034 30.6022C211.018 29.5605 210.513 28.2636 210.513 26.7063C210.513 24.3469 211.617 22.5292 213.825 21.248C216.044 19.9563 219.081 19.3105 222.93 19.3105C227.331 19.3105 230.544 20.3469 232.575 22.4147C234.617 24.4719 235.638 27.7792 235.638 32.3313V43.0813C235.638 45.1959 236.315 46.248 237.68 46.248C237.956 46.248 238.252 46.1803 238.575 46.0397C238.909 45.9042 239.169 45.6751 239.367 45.3522ZM220.096 46.9147C221.346 46.9147 222.627 46.4147 223.95 45.4147C225.268 44.4147 226.367 43.0709 227.242 41.373C228.127 39.6647 228.575 37.8105 228.575 35.8105C225.367 35.7428 222.825 36.1647 220.95 37.0813C219.711 37.6803 218.732 38.4772 218.013 39.4772C217.289 40.4772 216.93 41.6178 216.93 42.8938C216.93 44.0605 217.185 45.0292 217.7 45.7897C218.226 46.5397 219.023 46.9147 220.096 46.9147ZM290.133 50.1646C289.45 49.4042 288.846 48.2219 288.32 46.623L277.341 10.748C276.867 9.13861 275.549 8.33131 273.383 8.33131C271.508 8.33131 269.487 8.67506 267.32 9.35215L255.32 44.9355C254.846 46.6594 254.612 47.9251 254.612 48.7271C254.612 49.8001 254.93 50.5709 255.57 51.0396C256.206 51.524 257.227 51.7688 258.633 51.7688C259.95 51.7688 261.268 51.5084 262.591 50.998C262.185 50.6386 261.987 50.0553 261.987 49.248C261.987 48.5396 262.122 47.7063 262.404 46.748L264.633 38.5188H278.674L281.549 48.9563C281.742 49.873 282.227 50.5709 283.008 51.0396C283.799 51.524 284.768 51.7688 285.924 51.7688C287.799 51.7688 289.2 51.2324 290.133 50.1646ZM271.529 12.7271L277.529 34.5605H265.654L271.529 12.7271ZM303.322 20.2272C304.124 20.2272 305.369 20.2011 307.051 20.1438C308.728 20.0761 309.687 20.0188 309.926 19.9772L309.864 21.7272C309.822 22.3261 309.624 22.7792 309.28 23.0813C308.947 23.373 308.52 23.5188 308.009 23.5188H302.551V43.0813C302.551 45.1959 303.468 46.248 305.301 46.248C305.827 46.248 306.343 46.1803 306.843 46.0397C307.343 45.9042 307.645 45.6751 307.759 45.3522C308.327 46.0761 308.614 46.8626 308.614 47.7063C308.614 48.8626 308.051 49.8001 306.926 50.5188C305.801 51.2376 304.322 51.6022 302.489 51.6022C300.249 51.6022 298.52 50.9042 297.301 49.498C296.077 48.0969 295.468 46.1594 295.468 43.6855V23.5188H294.572C292.931 23.5188 291.728 23.5813 290.968 23.7063L291.03 21.9563C291.072 21.4042 291.259 20.9772 291.593 20.6855C291.937 20.3834 292.369 20.2272 292.884 20.2272H295.468V15.8938C295.468 14.7428 295.843 13.8417 296.593 13.1855C297.353 12.5188 298.343 12.1855 299.551 12.1855C300.468 12.1855 301.265 12.3469 301.947 12.6647C302.624 12.9876 303.166 13.3469 303.572 13.748C303.041 15.8209 302.723 17.9772 302.614 20.2272H303.322ZM316.426 14.7688C317.259 15.5605 318.249 15.9563 319.405 15.9563C320.572 15.9563 321.561 15.5605 322.384 14.7688C323.202 13.9667 323.614 12.9772 323.614 11.8105C323.614 10.6178 323.202 9.62299 322.384 8.83132C321.561 8.02924 320.572 7.62299 319.405 7.62299C318.249 7.62299 317.259 8.02924 316.426 8.83132C315.603 9.62299 315.197 10.6178 315.197 11.8105C315.197 12.9772 315.603 13.9667 316.426 14.7688ZM324.259 50.2272C323.577 48.4667 323.239 45.998 323.239 42.8313L323.134 23.0397C323.134 21.873 322.759 20.9667 322.009 20.3105C321.27 19.6438 320.306 19.3105 319.114 19.3105C317.624 19.3105 316.306 19.8313 315.155 20.873C315.832 22.8313 316.176 25.2897 316.176 28.248L316.218 48.0605C316.218 49.2167 316.598 50.1334 317.364 50.8105C318.124 51.4876 319.061 51.8313 320.176 51.8313C321.103 51.8313 321.916 51.6542 322.614 51.3105C323.322 50.9772 323.869 50.6178 324.259 50.2272ZM353.066 19.498C354.425 19.498 355.41 19.748 356.024 20.248C356.649 20.748 356.962 21.5188 356.962 22.5605C356.962 23.8417 356.722 25.0969 356.254 26.3313L346.941 50.748C345.342 51.4667 343.743 51.8313 342.149 51.8313C340.108 51.8313 338.842 51.0292 338.358 49.4355L329.837 24.6647C329.806 24.5813 329.639 24.1126 329.337 23.248C329.03 22.3886 328.618 21.6803 328.108 21.123C329.108 20.0397 330.467 19.498 332.191 19.498C333.3 19.498 334.222 19.7428 334.962 20.2272C335.712 20.7011 336.181 21.3938 336.379 22.3105L343.399 47.3938L349.524 24.5397C349.759 23.4147 349.879 22.5969 349.879 22.0813C349.879 21.2792 349.717 20.6751 349.399 20.2688C350.608 19.7584 351.826 19.498 353.066 19.498ZM391.158 47.7063C391.158 46.9042 390.897 46.1178 390.387 45.3522C390.189 45.6751 389.929 45.9042 389.595 46.0397C389.272 46.1803 388.975 46.248 388.699 46.248C387.335 46.248 386.658 45.1959 386.658 43.0813V32.3313C386.658 27.7792 385.637 24.4719 383.595 22.4147C381.564 20.3469 378.35 19.3105 373.949 19.3105C370.1 19.3105 367.064 19.9563 364.845 21.248C362.637 22.5292 361.533 24.3469 361.533 26.7063C361.533 28.2636 362.038 29.5605 363.054 30.6022C364.08 31.6438 365.434 32.1647 367.116 32.1647C367.908 32.1647 368.647 32.0553 369.345 31.8313C370.054 31.6126 370.606 31.2792 371.012 30.8313C370.205 30.4459 369.626 29.8469 369.283 29.0397C368.949 28.2376 368.783 27.373 368.783 26.4563C368.783 24.8626 369.22 23.6959 370.095 22.9563C370.981 22.2063 372.126 21.8313 373.533 21.8313C375.6 21.8313 377.085 22.6542 377.991 24.2897C378.892 25.9303 379.345 28.4511 379.345 31.8522V33.4147C376.106 33.4147 373.147 33.8001 370.47 34.5605C367.47 35.3938 364.996 36.6386 363.054 38.2897C361.106 39.9303 360.137 42.0292 360.137 44.5813C360.137 46.7792 360.845 48.498 362.262 49.748C363.689 50.9876 365.564 51.6022 367.887 51.6022C370.564 51.6022 372.929 50.8522 374.97 49.3522C377.012 47.8522 378.606 45.8417 379.762 43.3105C379.887 46.2428 380.47 48.3626 381.512 49.6647C382.554 50.9563 384.033 51.6022 385.949 51.6022C387.501 51.6022 388.762 51.2324 389.72 50.498C390.679 49.748 391.158 48.8209 391.158 47.7063ZM374.97 45.4147C373.647 46.4147 372.366 46.9147 371.116 46.9147C370.043 46.9147 369.246 46.5397 368.72 45.7897C368.205 45.0292 367.949 44.0605 367.949 42.8938C367.949 41.6178 368.309 40.4772 369.033 39.4772C369.751 38.4772 370.731 37.6803 371.97 37.0813C373.845 36.1647 376.387 35.7428 379.595 35.8105C379.595 37.8105 379.147 39.6647 378.262 41.373C377.387 43.0709 376.288 44.4147 374.97 45.4147ZM96.0425 76.9302C96.0425 78.9198 95.6519 80.6594 94.8759 82.1594C94.1102 83.6489 93.0113 84.7844 91.5842 85.576C90.1675 86.3677 88.5269 86.7635 86.6675 86.7635H79.4592V67.4927H85.8342C89.0946 67.4927 91.6102 68.3156 93.3759 69.951C95.1519 71.5917 96.0425 73.9198 96.0425 76.9302ZM93.4175 76.9302C93.4175 74.5448 92.7613 72.7219 91.4592 71.4719C90.1519 70.2219 88.2561 69.5969 85.7717 69.5969H82.0842V84.6802H86.3759C87.7769 84.6802 89.0113 84.3677 90.0842 83.7427C91.1675 83.1177 91.9905 82.2219 92.5634 81.0552C93.1311 79.8885 93.4175 78.5135 93.4175 76.9302ZM122.528 82.326C123.304 80.8156 123.694 79.05 123.694 77.0344C123.694 75.0239 123.309 73.2739 122.549 71.7844C121.799 70.3 120.7 69.1698 119.257 68.3885C117.809 67.6125 116.111 67.2219 114.153 67.2219C111.137 67.2219 108.788 68.0917 107.111 69.826C105.429 71.5656 104.59 73.9667 104.59 77.0344C104.59 79.0656 104.965 80.8417 105.715 82.3677C106.476 83.8833 107.575 85.0448 109.007 85.8469C110.434 86.6385 112.142 87.0344 114.132 87.0344C116.09 87.0344 117.783 86.6333 119.215 85.826C120.658 85.0083 121.762 83.8417 122.528 82.326ZM119.236 71.4094C120.429 72.7739 121.028 74.6489 121.028 77.0344C121.028 79.55 120.429 81.4927 119.236 82.8677C118.054 84.2323 116.351 84.9094 114.132 84.9094C111.965 84.9094 110.267 84.201 109.049 82.7844C107.84 81.3677 107.236 79.451 107.236 77.0344C107.236 74.6073 107.83 72.7167 109.028 71.3677C110.236 70.0239 111.944 69.3469 114.153 69.3469C116.345 69.3469 118.038 70.0344 119.236 71.4094ZM133.196 86.7635V67.4927H147.821V69.6385H135.821V75.8052H146.987V77.9094H135.821V84.6385H148.383V86.7635H133.196ZM171.396 67.4927V86.7635H186.584V84.6385H174.021V77.9094H185.188V75.8052H174.021V69.6385H186.021V67.4927H171.396ZM211.046 81.451C211.046 83.2323 210.348 84.6073 208.962 85.576C207.572 86.55 205.613 87.0344 203.087 87.0344C198.389 87.0344 195.671 85.4042 194.921 82.1385L197.441 81.6385C197.733 82.7948 198.348 83.6385 199.296 84.1802C200.254 84.7219 201.546 84.9927 203.171 84.9927C204.863 84.9927 206.171 84.7114 207.087 84.1385C208.004 83.5552 208.462 82.701 208.462 81.576C208.462 80.951 208.316 80.4458 208.025 80.0552C207.733 79.6698 207.327 79.3469 206.816 79.0969C206.301 78.8364 205.681 78.6177 204.962 78.451C204.781 78.4066 204.595 78.361 204.404 78.3141L204.403 78.3138L204.402 78.3136C203.832 78.1737 203.221 78.0236 202.566 77.8677C201.035 77.5344 199.879 77.201 199.087 76.8677C198.306 76.5344 197.691 76.1594 197.233 75.7427C196.775 75.326 196.421 74.8417 196.171 74.2844C195.931 73.7323 195.816 73.0917 195.816 72.3677C195.816 70.7167 196.447 69.4458 197.712 68.5552C198.973 67.6698 200.78 67.2219 203.129 67.2219C205.322 67.2219 206.993 67.5552 208.15 68.2219C209.316 68.8885 210.129 70.0292 210.587 71.6385L208.025 72.0969C207.733 71.0708 207.191 70.326 206.4 69.8677C205.608 69.4094 204.509 69.1802 203.108 69.1802C201.566 69.1802 200.384 69.4406 199.566 69.951C198.759 70.4667 198.358 71.2219 198.358 72.2219C198.358 72.8208 198.514 73.3156 198.837 73.701C199.155 74.0917 199.608 74.425 200.191 74.701C200.785 74.9667 201.967 75.2948 203.733 75.6802C204.327 75.8208 204.921 75.9614 205.504 76.0969C206.098 76.2375 206.66 76.4042 207.191 76.5969C207.733 76.7948 208.238 77.0239 208.712 77.2844C209.181 77.55 209.592 77.8781 209.941 78.2635C210.285 78.6385 210.556 79.0917 210.754 79.6177C210.947 80.1333 211.046 80.7427 211.046 81.451ZM233.612 77.6594C234.804 76.576 235.403 75.1281 235.403 73.3052C235.403 71.4614 234.804 70.0292 233.612 69.0135C232.429 68.0031 230.758 67.4927 228.591 67.4927H220.487V86.7635H223.112V79.2635H228.758C230.799 79.2635 232.414 78.7323 233.612 77.6594ZM228.278 69.5969C231.278 69.5969 232.778 70.8417 232.778 73.326C232.778 75.9094 231.32 77.201 228.403 77.201H223.112V69.5969H228.278ZM245.032 86.7635V67.4927H259.657V69.6385H247.657V75.8052H258.824V77.9094H247.657V84.6385H260.22V86.7635H245.032ZM278.202 78.7635L283.202 86.7635H286.202L280.744 78.4719C282.202 78.2114 283.348 77.5917 284.182 76.6177C285.025 75.6489 285.452 74.4458 285.452 73.0135C285.452 71.2792 284.859 69.925 283.682 68.951C282.499 67.9823 280.817 67.4927 278.64 67.4927H269.577V86.7635H272.202V78.7635H278.202ZM281.682 70.4719C282.442 71.0552 282.827 71.9094 282.827 73.0344C282.827 74.1906 282.442 75.0917 281.682 75.7427C280.932 76.3833 279.869 76.701 278.494 76.701H272.202V69.5969H278.39C279.817 69.5969 280.916 69.8885 281.682 70.4719ZM309.333 86.7635L307.125 81.1385H298.354L296.146 86.7635H293.438L301.292 67.4927H304.25L312 86.7635H309.333ZM302.75 69.4719L302.625 69.8469C302.385 70.6125 302.047 71.5864 301.604 72.7635L299.146 79.0969H306.354L303.875 72.7427C303.625 72.1073 303.365 71.3885 303.104 70.5969L302.75 69.4719ZM322.4 70.3469L332.712 86.7635H335.858V67.4927H333.504V80.1385C333.504 80.9302 333.556 82.2219 333.67 84.0135L323.254 67.4927H320.212V86.7635H322.545V73.9719L322.483 71.6802L322.4 70.3469ZM354.843 69.3469C352.703 69.3469 351.041 70.0344 349.864 71.4094C348.682 72.7739 348.093 74.6489 348.093 77.0344C348.093 79.3989 348.703 81.3 349.927 82.7427C351.161 84.175 352.833 84.8885 354.947 84.8885C357.64 84.8885 359.666 83.5552 361.031 80.8885L363.156 81.951C362.364 83.6073 361.249 84.8677 359.822 85.7427C358.47 86.5591 356.908 86.9854 355.138 87.0304L354.718 88.1385C355.562 88.1646 356.203 88.3573 356.635 88.7219C357.062 89.0969 357.281 89.5969 357.281 90.2219C357.281 91.8729 356.031 92.701 353.531 92.701C353.015 92.701 352.604 92.6802 352.302 92.6385V91.3052C352.744 91.3573 353.14 91.3885 353.489 91.3885C354.822 91.3885 355.489 91.0187 355.489 90.2844C355.489 89.576 354.885 89.2219 353.677 89.2219C353.286 89.2219 353.02 89.2271 352.885 89.2427L353.7 86.9874C352.222 86.8601 350.918 86.4739 349.781 85.826C348.364 85.0239 347.281 83.8677 346.531 82.3677C345.791 80.8677 345.427 79.0917 345.427 77.0344C345.427 73.9667 346.249 71.5656 347.906 69.826C349.572 68.0917 351.869 67.2219 354.802 67.2219C356.854 67.2219 358.572 67.6281 359.947 68.4302C361.322 69.2219 362.333 70.4094 362.989 71.9927L360.51 72.8052C360.062 71.6802 359.348 70.826 358.364 70.2427C357.374 69.6489 356.203 69.3469 354.843 69.3469ZM383.849 81.1385L386.058 86.7635H388.724L380.974 67.4927H378.016L370.162 86.7635H372.87L375.078 81.1385H383.849ZM379.349 69.8469L379.474 69.4719L379.828 70.5969C380.089 71.3885 380.349 72.1073 380.599 72.7427L383.078 79.0969H375.87L378.328 72.7635C378.771 71.5864 379.11 70.6125 379.349 69.8469Z" fill="white"/>
</svg>
