<svg width="400" height="400" viewBox="0 0 400 400" fill="none" xmlns="http://www.w3.org/2000/svg">
<g clip-path="url(#clip0_2261_2)">
<path d="M440 -40H-40V440H440V-40Z" fill="white"/>
<path d="M440 -40H-40V440H440V-40Z" fill="white"/>
<path d="M440 -40H-40V440H440V-40Z" fill="white"/>
<path d="M440 -40H-40V440H440V-40Z" fill="white"/>
<path d="M271.01 119.76C271.713 116.947 267.385 115.76 266.682 118.562C256.192 160.463 202.448 229.458 156.354 189.15C139.911 174.781 125.744 146.781 100.26 149.786C77.0153 152.525 57.609 176.421 42.9423 192.473C40.9944 194.603 44.1611 197.791 46.1194 195.645C62.9267 177.249 91.2028 142.254 118.864 158.609C141.562 172.025 151.151 200.827 179.401 205.734C200.854 209.458 221.02 194.879 235.27 180.609C251.666 164.197 265.354 142.369 271.01 119.76Z" fill="#B2DECD"/>
<path d="M207.458 233.723C257.484 223.869 305.213 192.187 324.437 143.63C325.505 140.937 321.161 139.781 320.109 142.437C301.469 189.526 254.609 219.874 206.265 229.401C203.427 229.958 204.63 234.281 207.458 233.723Z" fill="#B2DECD"/>
<path d="M198.98 271.546C161.579 267.947 146.016 237.416 123.24 212.453C103.657 190.994 74.2765 192.312 52.1255 208.614C49.8182 210.307 52.0578 214.203 54.3911 212.484C68.0578 202.432 83.3911 197.567 100.068 202.536C116.74 207.505 126.349 223.291 136.469 236.161C152.881 257.031 171.62 273.401 198.98 276.031C201.86 276.312 201.834 271.822 198.98 271.546Z" fill="#9098E0"/>
<path d="M296.671 104.854C299.39 104.708 301.843 103.26 304.093 101.192C303.979 103.776 304.583 106.255 306.166 108.734C303.369 109.218 300.947 110.802 298.875 112.932C298.651 110.151 297.885 107.458 296.671 104.854ZM296.958 123.635C299.744 118.255 303.843 111.098 310.979 113.671C313.088 114.427 314.802 111.385 313.161 109.921C306.442 103.916 308.156 99.0412 311.822 91.7443C313.14 89.1193 309.635 87.1766 307.947 89.4839C304.63 93.9995 299.869 102.984 293.588 99.6558C293.239 99.1714 292.875 98.687 292.5 98.213C291.411 96.838 289.828 97.4735 289.145 98.6818C288.145 99.4422 287.718 100.854 288.963 101.864C289.479 102.281 289.984 102.64 290.484 102.963C294.489 108.77 295.687 115.031 292.854 121.906C291.88 124.276 295.802 125.864 296.958 123.635Z" fill="#9098E0"/>
<path d="M285.401 144.89C285.63 145.265 285.911 145.52 286.218 145.692C285.437 147.056 282.385 146.843 280.875 146.374C280.312 146.202 279.942 145.952 279.588 145.582C279.552 145.546 279.521 145.541 279.588 145.374C280.776 142.671 283.875 142.369 285.401 144.89ZM276.823 141.53C274.541 144.062 274.531 147.567 277.416 149.608C282.567 153.249 292.125 150.812 290.698 143.343C290.468 142.155 289.578 141.687 288.661 141.733C285.588 137.765 280.281 137.676 276.823 141.53Z" fill="#9098E0"/>
<path d="M323.005 201.641C322.979 201.839 322.953 202.042 322.922 202.24C322.505 205.068 326.828 206.282 327.25 203.433C327.276 203.235 327.307 203.032 327.333 202.834C327.755 200.006 323.427 198.787 323.005 201.641Z" fill="#9098E0"/>
<path d="M78.9585 174.074C86.4012 169.949 94.6303 167.996 103.063 167.532C113.052 166.975 119.234 171.058 127.021 176.355C129.417 177.99 131.662 174.1 129.281 172.48C122.734 168.027 118.172 164.626 110.151 163.381C102.167 162.141 93.896 163.694 86.2866 166.048C69.0939 171.355 55.5887 185.324 42.198 196.605C39.9845 198.47 43.172 201.631 45.3699 199.777C56.1928 190.662 66.5053 180.975 78.9585 174.074Z" fill="#9098E0"/>
<path d="M155.12 202.797C155.547 199.963 151.224 198.75 150.792 201.604C150.776 201.692 150.766 201.786 150.75 201.88C150.323 204.708 154.646 205.922 155.078 203.073C155.094 202.979 155.105 202.885 155.12 202.797Z" fill="#9098E0"/>
<path d="M132.172 181.255C136.115 186.896 140.245 192.391 144.938 197.437C146.912 199.562 150.079 196.385 148.11 194.266C143.678 189.5 139.777 184.323 136.047 178.99C134.407 176.641 130.506 178.88 132.172 181.255Z" fill="#9098E0"/>
<path d="M63.5939 164.928C79.9428 141.683 110.5 134.344 132.656 155.36C134.755 157.349 137.932 154.183 135.833 152.188C124.896 141.818 108.636 136.099 93.521 138.829C78.6928 141.511 68.198 150.61 59.7189 162.662C58.047 165.037 61.9428 167.277 63.5939 164.928Z" fill="#9098E0"/>
<path d="M266.963 161.036C251.604 195.041 210.198 224.76 172.672 208.786C170.041 207.661 167.75 211.525 170.406 212.656C210.203 229.603 254.307 199.906 270.838 163.296C272.021 160.682 268.151 158.395 266.963 161.036Z" fill="#9098E0"/>
<path d="M318.235 213.423C309.047 231.808 291.016 244.089 273.417 253.631C255.818 263.188 235.401 270.641 215.229 271.496C212.349 271.615 212.334 276.105 215.229 275.985C236.453 275.084 257.021 267.22 275.683 257.511C293.917 248.027 312.714 234.496 322.11 215.683C323.396 213.1 319.526 210.829 318.235 213.423Z" fill="#9098E0"/>
<path d="M150.214 164.812C148.255 162.671 145.089 165.853 147.042 167.984C157.958 179.879 175.313 191.52 192.396 188.244C205.698 185.697 222.292 177.181 226.755 163.52C227.656 160.765 223.323 159.593 222.427 162.333C218.349 174.812 200.823 183.046 188.589 184.124C173.849 185.411 159.599 175.036 150.214 164.812Z" fill="#9098E0"/>
<path d="M140.271 159.588C140.271 159.588 144.76 162.755 144.76 159.588C144.76 157.057 140.271 157.057 140.271 159.588Z" fill="#9098E0"/>
<path d="M94.7653 182.239C110.677 181.025 122.427 189.999 133.494 200.041C150.328 215.317 167.307 233.947 191.64 234.65C194.536 234.734 194.526 230.244 191.64 230.166C161.76 229.302 144.333 200.104 121.724 184.775C98.9059 169.307 68.3695 181.025 50.0882 197.932C47.958 199.9 51.1403 203.062 53.2601 201.104C64.833 190.406 78.9372 183.442 94.7653 182.239Z" fill="#C7CBF3"/>
<path d="M318.13 190.224C320.208 186.626 322.109 182.87 324.719 179.615C326.51 177.381 323.354 174.178 321.547 176.443C318.682 180.016 316.536 184.006 314.255 187.964C312.807 190.474 316.682 192.73 318.13 190.224Z" fill="#C7CBF3"/>
<path d="M255.219 236.937C252.453 237.76 253.636 242.094 256.412 241.266C277.365 235.042 287.849 214.776 305.615 203.651C308.063 202.12 305.813 198.24 303.349 199.781C286.063 210.609 275.49 230.922 255.219 236.937Z" fill="#C7CBF3"/>
<path d="M353.031 137.865C351.141 143.688 346.438 148.646 341.932 153.412C342.568 151.313 343.198 149.209 343.953 147.172C345.13 143.995 346.677 140.896 349.078 138.475C350.172 137.365 351.599 136.782 353.13 136.74C353.682 136.725 353.485 136.464 353.031 137.865ZM344.162 137.266C339.005 144.162 338.453 152.818 334.672 160.297C333.776 162.068 335.339 163.698 336.823 163.693C337.573 164.146 338.516 164.126 339.235 163.198C342.995 158.35 347.354 153.98 351.11 149.11C353.464 146.063 359.969 138.896 357.36 134.485C354.24 129.214 346.677 133.907 344.162 137.266Z" fill="#C7CBF3"/>
<path d="M242.427 128.917C242.62 129.225 242.843 129.459 243.093 129.631C241.057 131.287 237.453 130.782 235.146 129.61C234.458 129.266 233.031 128.475 233.484 127.631C235.307 124.251 240.942 126.506 242.427 128.917ZM230.583 131.798C235.484 137.188 246.734 136.287 248.75 128.709C249.271 126.766 247.333 125.6 245.859 126.006C242.593 121.501 236.218 120.245 231.505 123.344C228.406 125.376 228.208 129.183 230.583 131.798Z" fill="#C7CBF3"/>
<path d="M231.37 154.1C231.792 151.272 227.464 150.053 227.042 152.907C227.005 153.152 226.969 153.402 226.932 153.647C226.51 156.475 230.833 157.688 231.255 154.834C231.292 154.589 231.333 154.344 231.37 154.1Z" fill="#C7CBF3"/>
<path d="M251.333 243.229C253.886 241.869 251.625 237.994 249.068 239.359C219.667 255.036 186.406 249.479 160.495 229.661C158.198 227.895 155.964 231.801 158.229 233.536C185.448 254.348 220.62 259.609 251.333 243.229Z" fill="#C7CBF3"/>
<path d="M214.865 153.495C227.797 135.505 205.021 116.068 187.401 124.771C179.026 128.907 174.646 135.36 177.797 144.516C179.964 150.834 185.646 151.875 188.636 145.891C189.933 143.313 186.058 141.042 184.766 143.631C179.782 141.631 179.401 137.985 183.62 132.667C185.886 130.407 188.558 128.849 191.641 127.979C197.755 125.802 204.365 127.37 209.323 131.417C224.646 143.912 203.375 159.907 192.167 162.766C167.459 169.073 147.896 145.042 128.755 134.172C103.49 119.823 56.4846 124.521 45.5992 155.808C44.6409 158.547 48.9794 159.719 49.9222 157C56.0367 139.438 76.7971 132.521 93.6357 130.87C113.318 128.938 129.021 138.922 143.917 150.266C163.912 165.485 196.537 178.985 214.865 153.495Z" fill="#C7CBF3"/>
</g>
<defs>
<clipPath id="clip0_2261_2">
<rect width="400" height="400" fill="white"/>
</clipPath>
</defs>
</svg>
