<svg width="523" height="477" viewBox="0 0 523 477" fill="none" xmlns="http://www.w3.org/2000/svg">
<path d="M297.192 25.8066C172.859 25.8066 72.0723 126.593 72.0723 250.926C72.0723 375.255 172.859 476.046 297.192 476.046C421.52 476.046 522.307 375.255 522.307 250.926C522.307 126.593 421.52 25.8066 297.192 25.8066Z" fill="#33168D"/>
<path d="M88.026 0.25C39.7812 0.25 0.671875 39.3594 0.671875 87.6042C0.671875 135.849 39.7812 174.958 88.026 174.958C136.266 174.958 175.375 135.849 175.375 87.6042C175.375 39.3594 136.266 0.25 88.026 0.25Z" fill="#CAD315"/>
<path d="M88.5003 64.1465L73.917 80.0319L81.4378 87.4902L85.2295 83.8288V110.245H95.891V64.1465H88.5003Z" fill="#33168D"/>
<path d="M366.989 130.906V96.0469H227.9V130.906C207.479 133.625 191.744 151.047 191.744 172.135V363.943C191.744 386.911 210.406 405.536 233.452 405.536H361.416C384.463 405.536 403.145 386.911 403.145 363.943V172.135C403.145 151.047 387.385 133.625 366.989 130.906Z" fill="#66CEF5"/>
<path d="M366.99 130.906H369.115V96.0462C369.115 95.4889 368.885 94.9473 368.495 94.5514C368.099 94.1556 367.552 93.9316 366.99 93.9316H227.901C227.344 93.9316 226.797 94.1556 226.401 94.5514C226.005 94.9473 225.776 95.4889 225.776 96.0462V130.906H227.901L227.625 128.807C216.885 130.239 207.385 135.525 200.573 143.229C193.76 150.932 189.625 161.062 189.625 172.135V363.942C189.625 388.077 209.234 407.65 233.453 407.65H361.417C385.635 407.65 405.271 388.083 405.271 363.942V172.135C405.276 161.062 401.13 150.932 394.307 143.229C387.495 135.525 377.995 130.239 367.276 128.807L366.99 130.906H369.115H366.99L366.708 133.005C376.385 134.291 384.964 139.072 391.125 146.031C397.292 152.994 401.026 162.119 401.026 172.135V363.942C401.026 374.848 396.599 384.702 389.427 391.859C382.25 399.005 372.359 403.421 361.417 403.421H233.453C222.51 403.421 212.63 399.005 205.458 391.859C198.297 384.708 193.87 374.848 193.87 363.942V172.135C193.87 162.119 197.599 152.994 203.76 146.031C209.917 139.072 218.49 134.291 228.182 133.005C229.234 132.864 230.021 131.963 230.021 130.906V98.166H364.87V130.906C364.87 131.963 365.656 132.864 366.708 133.005L366.99 130.906Z" fill="#231F20"/>
<path d="M374.588 231.75C365.619 233.438 355.932 234.198 347.15 231.011C340.27 228.526 334.604 224.589 328.234 221.162C324.088 218.928 318.676 217.547 314.952 218.49C311.4 219.386 307.744 221.506 305.333 223.454C295.775 231.219 286.4 239.969 273.749 242.058C259.713 244.391 244.416 241.849 232.854 233.334C224.13 226.901 216.734 219.026 205.124 219.131C199.333 219.193 194.843 220.917 191.744 224.709V363.943C191.744 386.912 210.406 405.537 233.452 405.537H361.416C384.463 405.537 403.145 386.912 403.145 363.943V220.079C394.52 225.745 385.088 229.771 374.588 231.75Z" fill="white"/>
<path d="M229.188 106.688H328.26C329.432 106.688 330.385 105.74 330.385 104.574C330.385 103.402 329.432 102.459 328.26 102.459H229.188C228.01 102.459 227.062 103.402 227.062 104.574C227.062 105.74 228.01 106.688 229.188 106.688Z" fill="#231F20"/>
<path d="M299.37 113.947H366C367.177 113.947 368.125 112.999 368.125 111.833C368.125 110.666 367.177 109.713 366 109.713H299.37C298.198 109.713 297.25 110.666 297.25 111.833C297.25 112.999 298.198 113.947 299.37 113.947Z" fill="#231F20"/>
<path d="M228.594 121.744H307.625C308.797 121.744 309.745 120.796 309.745 119.624C309.745 118.458 308.797 117.51 307.625 117.51H228.594C227.422 117.51 226.469 118.458 226.469 119.624C226.469 120.796 227.422 121.744 228.594 121.744Z" fill="#231F20"/>
<path d="M289.932 128.479H367.77C368.942 128.479 369.895 127.531 369.895 126.365C369.895 125.193 368.942 124.25 367.77 124.25H289.932C288.76 124.25 287.807 125.193 287.807 126.365C287.807 127.531 288.76 128.479 289.932 128.479Z" fill="#231F20"/>
</svg>
