<svg width="523" height="477" viewBox="0 0 523 477" fill="none" xmlns="http://www.w3.org/2000/svg">
<path d="M297.192 25.8066C172.859 25.8066 72.0723 126.593 72.0723 250.926C72.0723 375.255 172.859 476.046 297.192 476.046C421.52 476.046 522.307 375.255 522.307 250.926C522.307 126.593 421.52 25.8066 297.192 25.8066Z" fill="#33168D"/>
<path d="M88.026 0.25C39.7812 0.25 0.671875 39.3594 0.671875 87.6042C0.671875 135.849 39.7812 174.953 88.026 174.953C136.266 174.953 175.375 135.849 175.375 87.6042C175.375 39.3594 136.266 0.25 88.026 0.25Z" fill="#CAD315"/>
<path d="M324.906 126.104L328.005 129.197L316.578 131.338V135.426L329.385 132.775C329.286 132.291 329.396 131.775 329.776 131.4C330.37 130.817 331.333 130.817 331.917 131.416L347.995 147.624L345.839 149.749L345.792 149.697L345.083 150.333L316.578 150.499V153.083C316.583 153.083 316.583 153.083 316.589 153.083L345.094 153.244C345.927 153.249 346.604 153.932 346.599 154.765C346.594 155.15 346.443 155.499 346.203 155.765L346.891 156.38L330.844 172.562L316.578 169.609V173.697L328.005 175.843L324.906 178.932L316.578 178.104V182.489L322.469 183.213L323.573 191.916L328.219 191.338L326.943 181.114L329.922 178.01L332.281 190.505L336.224 189.593L333.266 174.749L349.396 158.859L350.203 159.749C350.469 159.51 350.818 159.359 351.203 159.359C351.208 159.359 351.214 159.359 351.214 159.359C352.047 159.359 352.724 160.031 352.729 160.859L352.917 193.02C352.922 193.854 352.245 194.536 351.411 194.541C351.406 194.541 351.406 194.541 351.401 194.541C350.875 194.541 350.417 194.275 350.141 193.869L335.703 203.494L338.365 207.749L351.469 198.827L351.385 202.666C351.823 202.676 352.255 202.864 352.547 203.239C353.062 203.9 352.943 204.848 352.281 205.359L342.135 213.234L344.786 216.624L353.432 209.937L362.625 217.093L365.703 212.718L355.062 204.036V198.598L368.5 207.749L371.156 203.494L355.464 193.229L355.651 160.869L357.5 158.822L373.661 174.749L370.708 189.593L374.646 190.505L377.005 178.01L379.984 181.109L378.708 191.338L383.354 191.911L384.458 183.213L393.766 182.072L393.026 177.838L382.021 178.932L378.922 175.843L391.776 173.426L390.859 169.499L376.083 172.562L360.005 156.348L361.776 154.755L394.24 154.572L404.536 170.218L408.807 167.567L399.625 154.171H405.083L413.792 164.781L418.182 161.713L411.833 153.609C411.573 153.817 411.25 153.947 410.891 153.947L361.786 154.109C361.781 154.109 361.781 154.109 361.781 154.109C360.943 154.109 360.266 153.437 360.266 152.604C360.26 151.77 360.938 151.093 361.776 151.088L410.885 150.926C410.885 150.926 410.885 150.926 410.891 150.926C411.292 150.926 411.661 151.088 411.932 151.348L417.708 143.926L413.109 140.359L405.214 150.473L399.854 150.588L408.807 137.525L404.536 134.874L394.047 150.52L361.781 150.333L359.984 148.718L376.089 132.473L390.865 135.536L391.776 131.609L378.922 129.197L382.026 126.104L393.026 127.197L393.771 122.968L384.464 121.827L383.359 113.124L378.708 113.697L379.99 123.926L377.01 127.031L374.651 114.531L370.708 115.442L373.667 130.286L357.479 146.239L355.651 144.223L355.469 111.864L371.161 101.598L368.5 97.3431L355.068 106.489V101.057L365.708 92.3691L362.63 87.9941L353.432 95.1556L344.786 88.4681L341.203 93.0462L341.266 93.0931C341.776 92.4369 342.729 92.3171 343.391 92.8275L352.281 99.7285C352.943 100.244 353.062 101.192 352.547 101.848C352.255 102.223 351.823 102.421 351.385 102.432L351.469 106.265L338.365 97.3431L336.052 101.046C336.536 100.76 337.161 100.755 337.661 101.083L352.245 110.801C352.938 111.265 353.125 112.208 352.661 112.9C352.37 113.333 351.885 113.572 351.401 113.572C351.396 113.572 351.396 113.567 351.391 113.567L351.214 144.223L349.422 146.202L333.266 130.286L336.224 115.442L332.281 114.531L329.922 127.031L326.943 123.926L328.219 113.697L323.573 113.124L322.469 121.827L316.578 122.546V126.932L324.906 126.104ZM351.411 150.531L353.432 148.926L355.453 150.531L357.062 152.546L355.453 154.562L353.432 156.161L351.411 154.562L349.807 152.546L351.411 150.531Z" fill="#ABC9EB"/>
<path d="M316.578 319.417C316.578 320.068 316.552 320.714 316.51 321.359C321.469 326.49 326.26 334.057 326.724 344.401C326.755 345.078 326.333 345.661 325.729 345.88C325.771 346.26 325.802 346.641 325.833 347.021C325.849 347.245 325.87 347.469 325.885 347.698C325.938 348.536 325.974 349.385 325.974 350.24C325.974 371.891 308.365 389.448 286.641 389.448C280.531 389.448 274.75 388.057 269.589 385.583C268.583 385.099 267.604 384.568 266.651 384.005C265.651 383.411 264.677 382.776 263.734 382.104C262.479 381.203 261.271 380.24 260.13 379.203C257.604 376.901 255.385 374.271 253.526 371.385C253.521 371.385 253.516 371.385 253.51 371.385C252.969 371.385 252.448 371.099 252.172 370.594C241.552 350.958 246.464 336.297 252.458 327.453C253.839 325.411 255.328 323.594 256.823 321.99C256.75 321.141 256.703 320.281 256.703 319.417V305.797C242.776 315.318 233.641 331.292 233.641 349.396C233.641 378.578 257.37 402.234 286.641 402.234C315.917 402.234 339.646 378.578 339.646 349.396C339.646 331.292 330.505 315.318 316.578 305.797V319.417Z" fill="#CFE7F9"/>
<path d="M256.703 305.797V319.417C256.703 320.281 256.75 321.141 256.823 321.99C261.172 317.307 265.547 314.443 267.307 313.385V179.167C267.307 178.333 267.984 177.656 268.823 177.656C268.891 177.656 268.958 177.667 269.026 177.677C270.26 169.089 277.698 162.427 286.641 162.427C296.443 162.427 304.458 170.422 304.458 180.193V312.75C304.677 312.75 304.896 312.792 305.104 312.891C305.542 313.099 311.125 315.786 316.51 321.359C316.552 320.714 316.578 320.068 316.578 319.417V156.104H316.568C315.734 156.099 315.057 155.422 315.062 154.583C315.068 153.755 315.745 153.083 316.578 153.083V117.609C316.578 101.198 303.109 87.7656 286.641 87.7656C270.177 87.7656 256.703 101.198 256.703 117.609V305.797ZM314.078 305.792C314.078 306.625 313.401 307.302 312.562 307.302C311.729 307.302 311.047 306.625 311.047 305.792V162.427C311.047 161.594 311.729 160.917 312.562 160.917C313.401 160.917 314.078 161.594 314.078 162.427V305.792Z" fill="#CFE7F9"/>
<path d="M270.338 179.167V190.058H279.135C279.968 190.058 280.65 190.735 280.65 191.568C280.65 192.402 279.968 193.079 279.135 193.079H270.338V219.199H274.963C275.796 219.199 276.473 219.876 276.473 220.709C276.473 221.542 275.796 222.219 274.963 222.219H270.338V248.339H280.505C281.343 248.339 282.02 249.011 282.02 249.85C282.02 250.683 281.338 251.36 280.505 251.36H270.338V277.48H280.166C281.005 277.48 281.682 278.152 281.682 278.99C281.682 279.824 280.999 280.495 280.166 280.495H270.338V284.209H304.458V180.193C304.458 170.423 296.442 162.428 286.64 162.428C277.697 162.428 270.26 169.089 269.025 177.678C269.765 177.777 270.338 178.402 270.338 179.167Z" fill="white"/>
<path d="M296.115 284.213H293.703L304.464 300.588V296.911L296.115 284.213Z" fill="#B1D1E8"/>
<path d="M287.698 284.213H285.281L304.068 312.807C304.193 312.77 304.328 312.755 304.458 312.755V309.729L287.698 284.213Z" fill="#B1D1E8"/>
<path d="M325.229 357.838C325.422 356.859 325.573 355.869 325.692 354.864L279.281 284.213H276.864L325.229 357.838Z" fill="#B1D1E8"/>
<path d="M322.458 366.437C322.796 365.697 323.109 364.952 323.4 364.192L270.859 284.213H270.338V287.093L322.458 366.437Z" fill="#B1D1E8"/>
<path d="M318.499 373.224C318.926 372.635 319.338 372.036 319.734 371.422L270.338 296.234V299.911L318.499 373.224Z" fill="#B1D1E8"/>
<path d="M313.676 378.698C314.176 378.229 314.666 377.745 315.14 377.245L270.338 309.047V312.724L313.676 378.698Z" fill="#B1D1E8"/>
<path d="M308.13 383.072C308.698 382.702 309.25 382.322 309.797 381.926L267.172 317.041C266.677 317.374 266.119 317.76 265.521 318.202L308.13 383.072Z" fill="#B1D1E8"/>
<path d="M301.89 386.39C302.521 386.124 303.146 385.843 303.755 385.551L261.614 321.4C261.125 321.843 260.63 322.317 260.13 322.812L301.89 386.39Z" fill="#B1D1E8"/>
<path d="M296.989 388.067L256.666 326.682C256.229 327.234 255.797 327.807 255.38 328.4L294.906 388.572C295.609 388.421 296.302 388.255 296.989 388.067Z" fill="#B1D1E8"/>
<path d="M289.411 389.339L252.5 333.156C252.151 333.854 251.817 334.573 251.505 335.318L287.057 389.438C287.849 389.427 288.63 389.396 289.411 389.339Z" fill="#B1D1E8"/>
<path d="M280.776 389.011L249.578 341.521C249.38 342.485 249.229 343.475 249.114 344.495L278.015 388.49C278.927 388.693 279.843 388.876 280.776 389.011Z" fill="#B1D1E8"/>
<path d="M249.427 354.109C249.744 356 250.224 357.958 250.875 359.99L266.651 384.005C267.604 384.568 268.583 385.099 269.588 385.583C269.828 385.698 270.078 385.802 270.317 385.911L249.427 354.109Z" fill="#B1D1E8"/>
<path d="M252.458 327.454C246.464 336.298 241.552 350.959 252.172 370.594C252.448 371.1 252.969 371.386 253.51 371.386C253.516 371.386 253.521 371.386 253.526 371.386C253.766 371.381 254.005 371.324 254.229 371.204C254.964 370.808 255.24 369.891 254.844 369.162C253.109 365.959 251.813 362.902 250.875 359.99C250.224 357.959 249.745 356.001 249.427 354.11C248.849 350.673 248.792 347.469 249.115 344.495C249.224 343.475 249.38 342.485 249.578 341.521C250.026 339.308 250.693 337.245 251.505 335.318C251.818 334.574 252.146 333.855 252.5 333.157C253.365 331.443 254.344 329.86 255.38 328.396C255.797 327.808 256.229 327.235 256.667 326.683C257.797 325.256 258.969 323.964 260.13 322.813C260.63 322.318 261.125 321.844 261.615 321.396C263.016 320.126 264.349 319.058 265.516 318.204C266.12 317.761 266.677 317.376 267.172 317.042C268.458 316.183 269.339 315.699 269.542 315.589C270.031 315.324 270.339 314.813 270.339 314.261V280.501H268.823C267.984 280.501 267.307 279.824 267.307 278.99V313.391C265.547 314.443 261.172 317.308 256.823 321.99C255.328 323.594 253.839 325.412 252.458 327.454Z" fill="#16213D"/>
<path d="M268.822 248.339H270.338V222.219H268.822C267.984 222.219 267.307 221.542 267.307 220.709V249.85C267.307 249.016 267.984 248.339 268.822 248.339Z" fill="#16213D"/>
<path d="M268.822 277.48H270.338V251.36H268.822C267.984 251.36 267.307 250.683 267.307 249.85V278.99C267.307 278.157 267.984 277.48 268.822 277.48Z" fill="#16213D"/>
<path d="M268.822 190.057H270.338V179.167C270.338 178.401 269.765 177.776 269.025 177.677C268.958 177.667 268.89 177.656 268.822 177.656C267.984 177.656 267.307 178.333 267.307 179.167V191.568C267.307 190.734 267.984 190.057 268.822 190.057Z" fill="#16213D"/>
<path d="M268.822 219.199H270.338V193.079H268.822C267.984 193.079 267.307 192.402 267.307 191.568V220.709C267.307 219.876 267.984 219.199 268.822 219.199Z" fill="#16213D"/>
<path d="M268.822 193.077H279.135C279.968 193.077 280.65 192.4 280.65 191.567C280.65 190.734 279.968 190.057 279.135 190.057H268.822C267.984 190.057 267.307 190.734 267.307 191.567C267.307 192.4 267.984 193.077 268.822 193.077Z" fill="#16213D"/>
<path d="M268.822 251.359H280.505C281.343 251.359 282.02 250.682 282.02 249.848C282.02 249.015 281.338 248.338 280.505 248.338H268.822C267.984 248.338 267.307 249.015 267.307 249.848C267.307 250.682 267.984 251.359 268.822 251.359Z" fill="#16213D"/>
<path d="M268.822 280.499H280.166C281.005 280.499 281.682 279.822 281.682 278.989C281.682 278.156 280.999 277.479 280.166 277.479H268.822C267.984 277.479 267.307 278.156 267.307 278.989C267.307 279.822 267.984 280.499 268.822 280.499Z" fill="#16213D"/>
<path d="M304.067 312.806C303.65 312.921 303.286 313.197 303.088 313.614C302.734 314.369 303.057 315.27 303.817 315.624C303.864 315.65 305.244 316.317 307.244 317.64C308.65 318.577 310.369 319.843 312.161 321.452C316.088 324.978 320.348 330.15 322.432 337.088C322.937 338.765 323.312 340.546 323.525 342.431C323.604 343.119 323.666 343.817 323.697 344.536C323.734 345.343 324.406 345.978 325.208 345.978C325.234 345.978 325.255 345.978 325.281 345.978C325.432 345.968 325.572 345.931 325.708 345.885C325.718 345.885 325.723 345.879 325.729 345.879C326.333 345.661 326.755 345.077 326.723 344.4C326.26 334.056 321.468 326.489 316.51 321.359C311.124 315.786 305.541 313.098 305.104 312.89C304.895 312.791 304.676 312.749 304.458 312.754C304.327 312.754 304.192 312.77 304.067 312.806Z" fill="#16213D"/>
<path d="M312.562 160.916C311.724 160.916 311.047 161.593 311.047 162.426V305.791C311.047 306.624 311.729 307.301 312.562 307.301C313.401 307.301 314.078 306.624 314.078 305.791V162.426C314.078 161.593 313.401 160.916 312.562 160.916Z" fill="#16213D"/>
<path d="M351.4 194.542C351.406 194.542 351.406 194.542 351.411 194.542C352.244 194.536 352.921 193.854 352.916 193.021L352.729 160.859C352.723 160.026 352.046 159.359 351.213 159.359H351.208C350.817 159.359 350.468 159.51 350.202 159.75C349.895 160.026 349.697 160.427 349.697 160.875L349.885 193.036C349.89 193.344 349.984 193.63 350.145 193.87C350.416 194.276 350.874 194.542 351.4 194.542Z" fill="#16213D"/>
<path d="M345.791 149.697L345.838 149.749L347.994 147.624L331.916 131.416C331.328 130.822 330.369 130.817 329.776 131.4C329.395 131.775 329.286 132.296 329.385 132.775C329.442 133.057 329.552 133.322 329.765 133.541L345.791 149.697Z" fill="#16213D"/>
<path d="M352.661 112.901C353.125 112.208 352.938 111.265 352.245 110.802L337.661 101.083C337.161 100.755 336.536 100.76 336.052 101.046C335.859 101.156 335.693 101.307 335.563 101.499C335.099 102.197 335.281 103.135 335.979 103.598L350.557 113.317C350.813 113.489 351.104 113.567 351.391 113.572C351.396 113.572 351.396 113.572 351.401 113.572C351.891 113.572 352.37 113.333 352.661 112.901Z" fill="#16213D"/>
<path d="M345.083 156.266C345.531 156.266 345.927 156.074 346.203 155.766C346.443 155.501 346.594 155.152 346.599 154.766C346.604 153.933 345.927 153.251 345.089 153.245L316.589 153.084C316.583 153.084 316.583 153.084 316.578 153.084C315.745 153.084 315.068 153.756 315.063 154.584C315.057 155.423 315.734 156.1 316.568 156.105H316.578L345.073 156.271C345.078 156.266 345.078 156.266 345.083 156.266Z" fill="#16213D"/>
<path d="M352.546 101.849C353.062 101.193 352.942 100.245 352.281 99.7293L343.39 92.8283C342.729 92.3179 341.776 92.4377 341.265 93.0939C340.749 93.7554 340.869 94.7033 341.526 95.2137L350.421 102.115C350.697 102.328 351.026 102.432 351.348 102.432C351.359 102.432 351.374 102.432 351.385 102.432C351.822 102.422 352.255 102.224 352.546 101.849Z" fill="#16213D"/>
<path d="M352.546 203.24C352.255 202.87 351.822 202.677 351.385 202.667C351.046 202.656 350.708 202.755 350.421 202.974L340.275 210.849C339.614 211.365 339.494 212.313 340.01 212.969C340.307 213.354 340.755 213.552 341.203 213.552C341.531 213.552 341.859 213.448 342.135 213.234L352.281 205.359C352.942 204.849 353.062 203.901 352.546 203.24Z" fill="#16213D"/>
<path d="M410.885 150.928L361.776 151.089C360.943 151.094 360.266 151.771 360.266 152.605C360.271 153.438 360.948 154.11 361.781 154.11C361.786 154.11 361.786 154.11 361.786 154.11L410.896 153.949C411.255 153.943 411.578 153.818 411.833 153.61C412.182 153.329 412.411 152.907 412.406 152.433C412.406 152.006 412.224 151.62 411.938 151.344C411.667 151.089 411.297 150.928 410.891 150.928C410.891 150.928 410.891 150.928 410.885 150.928Z" fill="#16213D"/>
<path d="M79.3239 95.0736H69.1885C69.1885 103.443 74.0895 110.964 85.2093 110.964C96.9124 110.964 102.798 103.443 102.798 96.3184C102.798 92.5267 101.423 88.7975 96.9801 86.5059C100.444 84.7402 101.423 81.0788 101.423 78.1361C101.423 68.7194 93.5791 63.8809 85.7301 63.8809C77.6208 63.8809 69.5791 68.8548 69.5791 79.1204H79.2562C79.2562 75.8496 82.1364 74.3444 85.0114 74.3444C87.8239 74.3444 90.5687 75.7194 90.5687 78.4642C90.5687 80.2298 89.1312 82.1257 87.0374 82.1257H80.2406V91.61H87.0374C90.5062 91.61 91.876 94.0944 91.876 95.9225C91.876 98.735 88.6729 100.37 85.4697 100.37C82.3968 100.37 79.3239 98.8027 79.3239 95.0736Z" fill="#33168D"/>
</svg>
