<svg width="523" height="477" viewBox="0 0 523 477" fill="none" xmlns="http://www.w3.org/2000/svg">
<path d="M297.192 25.8066C172.859 25.8066 72.0723 126.593 72.0723 250.926C72.0723 375.255 172.859 476.046 297.192 476.046C421.52 476.046 522.307 375.255 522.307 250.926C522.307 126.593 421.52 25.8066 297.192 25.8066Z" fill="#33168D"/>
<path d="M88.026 0.25C39.7812 0.25 0.671875 39.3594 0.671875 87.6042C0.671875 135.849 39.7812 174.953 88.026 174.953C136.266 174.953 175.375 135.849 175.375 87.6042C175.375 39.3594 136.266 0.25 88.026 0.25Z" fill="#CAD315"/>
<path d="M354.036 171.433C354.036 143.719 376.51 121.256 404.234 121.256C431.974 121.256 454.448 143.719 454.448 171.433C454.448 199.146 431.974 221.626 404.234 221.626C376.51 221.626 354.036 199.146 354.036 171.433Z" fill="#64CFF5"/>
<path d="M404.234 125.433C378.859 125.433 358.214 146.068 358.214 171.433C358.214 196.798 378.859 217.438 404.234 217.438C429.625 217.438 450.271 196.798 450.271 171.433C450.271 146.068 429.625 125.433 404.234 125.433ZM404.234 225.803C374.25 225.803 349.844 201.407 349.844 171.433C349.844 141.459 374.25 117.068 404.234 117.068C434.234 117.068 458.641 141.459 458.641 171.433C458.641 201.407 434.234 225.803 404.234 225.803Z" fill="#121211"/>
<path d="M249.432 380.553L251.708 368.001C300.76 378.61 361.369 356.438 369.072 301.23C380.484 219.495 313.781 218.714 269.109 121.256H195.041V380.553H249.432Z" fill="#E4AD70"/>
<path d="M252.796 385.407L244.572 383.917L248.359 363.016L252.593 363.912C260.192 365.568 268.109 366.391 276.109 366.391C315.755 366.391 358.588 346.058 364.937 300.646C365.765 294.693 366.187 288.995 366.187 283.751C366.187 250.313 349.817 233.193 327.15 209.511C308.301 189.798 284.838 165.277 265.671 123.792L263.916 119.995L271.515 116.49L273.27 120.287C291.859 160.49 313.827 183.464 333.213 203.725C356.312 227.886 374.551 246.964 374.551 283.751C374.551 289.386 374.104 295.459 373.218 301.808C366.229 351.928 317.973 374.756 276.109 374.756C268.989 374.756 261.932 374.147 255.057 372.928L252.796 385.407Z" fill="#121211"/>
<path d="M375.395 267.932C379.031 284.051 373.187 299.083 362.359 301.489C351.51 303.895 339.765 292.76 336.14 276.645C332.499 260.515 338.333 245.499 349.176 243.093C360.025 240.687 371.755 251.801 375.395 267.932Z" fill="#F14174"/>
<path d="M352.166 246.947C351.468 246.947 350.771 247.02 350.078 247.177C346.536 247.963 344.218 250.598 342.901 252.703C339.26 258.427 338.26 267.036 340.218 275.734C343.291 289.359 353.062 299.312 361.442 297.401C364.984 296.619 367.302 293.963 368.635 291.88C372.276 286.156 373.276 277.541 371.317 268.848C368.489 256.338 360.052 246.947 352.166 246.947ZM359.286 305.994C347.338 305.994 335.838 294.359 332.052 277.557C329.614 266.76 331.026 255.786 335.823 248.208C338.942 243.307 343.244 240.119 348.265 239.005C361.573 236.078 375.265 248.369 379.484 267.005C381.916 277.817 380.51 288.791 375.698 296.359C372.583 301.27 368.276 304.458 363.255 305.578C361.937 305.864 360.604 305.994 359.286 305.994Z" fill="#121211"/>
<path d="M369.724 260.369H378.614C380.906 260.369 382.989 261.223 384.573 262.63C386.369 264.255 387.5 266.588 387.5 269.182C387.5 271.369 386.703 273.385 385.369 274.921C383.729 276.807 381.307 277.994 378.614 277.994H369.724V260.369Z" fill="#F14174"/>
<path d="M378.615 282.182H365.531V273.817H378.615C381.208 273.817 383.312 271.744 383.312 269.182C383.312 266.63 381.208 264.541 378.615 264.541H365.531V256.182H378.615C385.818 256.182 391.693 262.02 391.693 269.182C391.693 276.354 385.818 282.182 378.615 282.182Z" fill="#121211"/>
<path d="M330.15 238.339C331.473 244.324 340.359 251.428 346.333 250.167L367.025 251.251C371.697 251.298 375.583 243.511 375.885 238.86C375.885 238.86 370.77 225.803 353.515 225.568L338.578 225.209C332.619 226.485 328.833 232.355 330.15 238.339Z" fill="#E4AD70"/>
<path d="M346 245.964L367.245 247.078C368.146 247.078 370.927 243.193 371.578 239.568C370.245 237.094 365.317 229.917 353.453 229.755L339.026 229.411C337.432 229.844 336.067 230.844 335.172 232.25C334.172 233.786 333.849 235.63 334.245 237.438C335.125 241.469 342.031 246.802 345.463 246.062L346 245.964ZM367.073 255.443C367.041 255.443 367.01 255.443 366.984 255.443L346.599 254.37C338.073 255.646 327.776 247.005 326.062 239.234C325.192 235.234 325.922 231.151 328.135 227.714C330.328 224.307 333.734 221.958 337.708 221.12L338.203 221.016L353.614 221.396C373.406 221.656 379.526 236.688 379.771 237.323L380.12 238.193L380.062 239.12C379.687 244.833 374.901 255.443 367.073 255.443Z" fill="#121211"/>
<path d="M306.546 372.551L276.025 380.275C273.385 380.942 270.718 380.322 268.718 378.786C267.249 377.666 266.15 376.088 265.656 374.192L265.484 373.479C264.989 371.583 265.192 369.666 265.932 367.999C266.963 365.697 268.989 363.869 271.645 363.187L302.166 355.463L306.546 372.551Z" fill="#E4AD70"/>
<path d="M299.136 360.552L272.677 367.25C271.542 367.536 270.589 368.25 270.005 369.234C269.427 370.219 269.255 371.349 269.542 372.438L269.719 373.161C270.297 375.438 272.688 376.828 274.995 376.219L301.443 369.521L299.136 360.552ZM273.906 384.729C268.25 384.729 263.078 380.917 261.609 375.219L261.422 374.51C260.599 371.25 261.089 367.854 262.802 364.974C264.542 362.042 267.313 359.974 270.615 359.146L305.182 350.391L311.636 375.568L277.052 384.339C275.995 384.599 274.953 384.729 273.906 384.729Z" fill="#121211"/>
<path d="M328.791 376.277L297.963 372.292L275.229 359.652C269.875 356.683 267.979 349.969 270.979 344.667C273.994 339.35 280.765 337.448 286.114 340.417L305.125 350.985L327.182 353.839L344.552 349.683C350.468 348.016 356.093 342.62 357.76 348.495L362.692 357.032C364.359 362.886 356.468 369.235 350.567 370.886L328.791 376.277Z" fill="#E4AD70"/>
<path d="M299.296 368.25L328.557 372.031L349.541 366.828C352.786 365.916 356.703 363.047 358.166 360.448C358.572 359.708 358.76 359.073 358.734 358.536L353.963 350.276C353.166 350.562 352.135 351.057 351.354 351.422C349.671 352.218 347.755 353.13 345.682 353.698L327.411 358.088L303.791 355.031L284.072 344.073C280.739 342.218 276.505 343.406 274.63 346.724C273.734 348.302 273.499 350.146 273.994 351.885C274.489 353.651 275.645 355.114 277.255 356L299.296 368.25ZM329.036 380.526L296.63 376.333L273.197 363.317C269.614 361.333 267.046 358.073 265.932 354.161C264.843 350.245 265.338 346.146 267.338 342.609C271.473 335.286 280.807 332.692 288.145 336.765L306.458 346.942L326.963 349.593L343.578 345.609C344.812 345.26 346.322 344.552 347.786 343.854C351.046 342.317 354.426 340.724 357.775 342.245C359.02 342.823 360.692 344.073 361.604 346.797L366.723 355.901C367.505 358.682 367.072 361.666 365.463 364.552C362.473 369.854 356.223 373.64 351.687 374.916L329.036 380.526Z" fill="#121211"/>
<path d="M338.473 358.828L307.593 355.365L284.635 343.115C279.228 340.229 277.213 333.547 280.129 328.188C283.041 322.823 289.786 320.823 295.176 323.693L314.374 333.927L336.473 336.417L362.312 326.896C368.202 325.141 370.364 310.719 372.129 316.547L376.145 334.276C377.9 340.099 374.567 346.245 368.692 348L338.473 358.828Z" fill="#E4AD70"/>
<path d="M308.854 351.292L337.984 354.568L367.276 344.073C369.276 343.464 370.739 342.277 371.625 340.652C372.479 339.058 372.667 337.214 372.146 335.48L369.885 325.563C368.318 327.938 366.302 330.073 363.515 330.896L337 340.683L313.099 338.001L293.208 327.391C289.844 325.594 285.625 326.839 283.797 330.188C282.927 331.782 282.739 333.62 283.26 335.36C283.781 337.115 284.969 338.563 286.594 339.433L308.854 351.292ZM338.984 363.089L306.328 359.422L282.667 346.797C279.057 344.886 276.417 341.667 275.239 337.766C274.083 333.881 274.5 329.766 276.443 326.188C280.448 318.823 289.739 316.042 297.151 320.011L315.625 329.87L335.969 332.141L360.864 322.969C362.359 322.521 364.359 318.391 365.099 316.839C366.562 313.839 368.13 310.823 371.552 310.995C373.088 311.126 375.12 311.969 376.135 315.344L380.234 333.344C381.323 336.943 380.917 341.042 378.989 344.61C377.047 348.204 373.812 350.839 369.885 352.016L338.984 363.089Z" fill="#121211"/>
<path d="M345.088 338L314 337.318L290.015 327.172C284.375 324.797 281.75 318.318 284.171 312.719C286.578 307.115 293.119 304.516 298.76 306.896L318.802 315.375L341.057 315.854L370.567 295.36C376.276 293.084 376.875 300.026 379.151 305.677L380.369 310.172C382.645 315.823 379.89 322.245 374.192 324.521L345.088 338Z" fill="#E4AD70"/>
<path d="M314.885 333.141L344.203 333.797L372.421 320.724C374.364 319.938 375.713 318.62 376.437 316.938C377.145 315.271 377.177 313.417 376.494 311.75L376.338 311.271L375.177 306.995C374.713 305.808 374.307 304.589 373.916 303.401C373.479 302.042 372.843 300.11 372.317 299.24L342.317 320.068L317.916 319.532L297.135 310.75C293.63 309.271 289.526 310.88 288.015 314.375C287.291 316.042 287.276 317.88 287.958 319.578C288.64 321.271 289.942 322.604 291.656 323.334L314.885 333.141ZM345.958 342.203L313.098 341.479L288.39 331.026C284.624 329.433 281.708 326.474 280.187 322.693C278.677 318.927 278.723 314.792 280.333 311.068C283.635 303.375 292.624 299.766 300.401 303.042L319.697 311.214L339.781 311.651L369.026 291.459C371.479 290.49 373.739 290.459 375.755 291.417C379.354 293.094 380.63 297.011 381.874 300.792C382.223 301.896 382.598 303.026 383.036 304.099L383.192 304.578L384.354 308.865C385.76 312.547 385.687 316.563 384.135 320.214C382.526 323.969 379.557 326.88 375.739 328.407L345.958 342.203Z" fill="#121211"/>
<path d="M258.161 373.51L254.057 372.74C231.713 368.583 212.588 358.161 200.203 343.359L197.521 340.146L203.932 334.781L206.614 337.984C217.75 351.292 235.151 360.724 255.578 364.521L259.698 365.292L258.161 373.51Z" fill="#121211"/>
<path d="M425.49 173.334L425.042 169.173C424.521 164.392 422.448 160.058 419.042 156.652C411.573 149.188 399.682 148.449 391.375 154.938L388.083 157.537L382.922 150.938L386.208 148.36C397.839 139.256 414.484 140.287 424.943 150.735C429.651 155.433 432.641 161.668 433.349 168.277L433.812 172.433L425.49 173.334Z" fill="#121211"/>
<path d="M404.234 200.714C396.416 200.714 389.067 197.667 383.525 192.13C379.192 187.812 376.364 182.333 375.364 176.318L374.666 172.188L382.921 170.797L383.598 174.927C384.327 179.219 386.354 183.13 389.442 186.219C393.4 190.172 398.65 192.349 404.234 192.349C409.817 192.349 415.077 190.172 419.041 186.219L421.994 183.26L427.9 189.172L424.942 192.13C419.416 197.667 412.062 200.714 404.234 200.714Z" fill="#121211"/>
<path d="M379.614 160.563L383.385 144.709L391.531 146.652L390.911 149.287L393.531 148.662L395.463 156.798L379.614 160.563Z" fill="#121211"/>
<path d="M425.822 197.422L417.692 195.479L418.312 192.854L415.687 193.479L413.744 185.333L429.609 181.562L425.822 197.422Z" fill="#121211"/>
<path d="M295.166 285.052L293.323 281.297C289.859 274.297 289.349 266.354 291.859 258.932C294.38 251.526 299.614 245.542 306.635 242.094L310.39 240.234L314.088 247.745L310.333 249.583C299.995 254.688 295.713 267.255 300.817 277.604L302.677 281.344L295.166 285.052ZM280.156 292.443L278.317 288.693C267.078 265.948 276.458 238.307 299.224 227.089L302.979 225.234L306.677 232.729L302.922 234.583C284.302 243.771 276.635 266.385 285.812 284.995L287.666 288.75L280.156 292.443Z" fill="#121211"/>
<path d="M69.042 81.3438H79.9587C79.9587 77.224 82.641 74.474 85.7139 74.474C89.5732 74.474 91.5993 76.7656 91.5993 79.25C91.5993 81.0156 90.292 82.9115 88.3337 84.6771L69.1045 102.203V110.245H102.651V99.7812H86.7607L95.917 92.5885C100.365 88.9271 102.849 84.151 102.849 79.4427C102.849 71.4687 98.0732 63.75 85.7139 63.75C75.4482 63.75 69.042 71.401 69.042 81.3438Z" fill="#33168D"/>
</svg>
